<svg width="57" height="48" viewBox="0 0 57 48" version="1.1" xmlns="http://www.w3.org/2000/svg"><title>bird</title><g id="desktop" stroke="none" stroke-width="1" fill="none" fill-rule="evenodd"><g id="lg/landing" transform="translate(-692 -4353)" fill="#E5E5E5"><g id="footer" transform="translate(0 3621)"><path d="M697.33 42.958l1.257-.08c-1.132-.65-2.51-.748-3.41-1.703l.063-.268 4.865.693.068-.117c-.405-.22-.795-.476-1.218-.654-1.353-.57-2.743-1.058-4.068-1.687-.529-.25-.916-.794-1.383-1.187-.2-.167-.441-.285-.657-.435-.26-.18-.513-.372-.686-.715l.471.003L692 36c.463.135.718.188.957.282 4.142 1.637 8.288 3.263 12.421 4.925 1.907.766 3.771 1.637 5.683 2.39.98.386 2.049.55 3.033.93 1.946.756 3.895 1.523 5.778 2.42 1.298.619 2.467 1.449 3.228 2.782.655 1.147 1.685 1.063 2.364-.06 1.368-2.264 4.635-2.9 6.736-1.034.336.298.847.4 1.31.606-.297.234-.912.725-1.202.955.026.054.227.028.435-.024 5.317-.7 10.607-1.477 15.925-2.177l.059.104c-.286.094-.566.21-.858.28-1.582.375-3.173.714-4.747 1.12-.429.111-.788.475-1.215.61-.699.222-1.426.351-2.198.533.305.89-.508.81-.988 1.019-.515.224-1.052.398-1.58.59-1.31.478-2.631.929-3.93 1.438-.868.34-1.844.563-2.04 1.747-.33 1.994-1.635 3.59-3.055 4.948-1.695 1.619-3.461 3.438-5.718 4.246-.649.233-.8.794-.922 1.36-.616 2.869-1.23 5.737-1.842 8.606-.31 1.626-.617 3.252-.973 4.869-.175.793-.303 1.597-.508 2.384-.191.736-.396 1.505-.813 2.151.021-2.057.382-6.096.444-6.84.046-.551.083-1.105.12-1.658.028-.424.168-1.031.003-1.44-.23-.545-.109-1.19-.175-1.813-.994-.061-.854-1.36-1.709-1.568-.145-.036-.303-.025-.45-.056-.291-.062-.578-.142-.868-.208-.167-.038-.346-.112-.504-.083-.529.097-.933.064-.845-.547-1.009.133-2.216.347-3.154.725-1.075.435-2.115 1.193-3.106 1.793a79.724 79.724 0 0 0-3.601 2.31c-1.211.823-2.346 1.467-3.886 2.294.95-.872 3.465-2.973 3.695-3.162 2.693-2.214 2.405-1.954 5.097-4.168 1.481-1.218 3.052-2.355 4.38-3.724 1.103-1.137 2.462-2.101 3.101-3.648.06-.144.178-.286.179-.43.004-1.28.562-2.315 1.44-3.198-.498-.398-1.064-.488-1.608-.75-.66-.32-1.286-.85-1.856-1.305-1.692-1.353-2.76-3.151-4.28-4.62-.218-.208-.53-.318-.843-.497l.22-.56c-1.19-.043-2.18-.338-2.933-1.239-.173-.207-.589-.194-.866-.335-.39-.2-.762-.438-1.13-.68-.507-.335-1.017-.67-1.5-1.04-.394-.3-.747-.657-1.125-.98-.228-.195-.453-.396-.706-.552-.617-.38-1.458-.517-1.48-1.507-.002-.102-.337-.194-.514-.297-.566-.33-1.132-.662-1.697-.994l.147-.265" transform="translate(0 696)" id="bird"/></g></g></g></svg>