<svg width="284" height="240" viewBox="0 0 284 240" version="1.1" xmlns="http://www.w3.org/2000/svg"><title>bird</title><g id="desktop" stroke="none" stroke-width="1" fill="none" fill-rule="evenodd"><g id="lg/landing" transform="translate(-578 -1320)" fill="#AFAFAF"><path d="M604.648 1354.792l6.286-.399c-5.659-3.254-12.548-3.742-17.052-8.516.104-.446.212-.892.32-1.341l24.323 3.466c.113-.195.229-.39.341-.586-2.026-1.101-3.976-2.38-6.09-3.271-6.768-2.847-13.718-5.292-20.34-8.434-2.646-1.255-4.581-3.97-6.914-5.934-1-.84-2.208-1.426-3.287-2.178-1.3-.903-2.566-1.858-3.428-3.576.694.005 1.385.01 2.354.019L578 1320c2.316.675 3.59.939 4.783 1.41 20.714 8.183 41.444 16.317 62.109 24.624 9.532 3.83 18.855 8.188 28.412 11.952 4.904 1.93 10.246 2.748 15.164 4.654 9.733 3.777 19.477 7.61 28.894 12.095 6.487 3.093 12.333 7.245 16.138 13.908 3.277 5.738 8.423 5.317 11.818-.3 6.842-11.317 23.178-14.5 33.682-5.168 1.68 1.492 4.235 1.996 6.545 3.028-1.478 1.173-4.557 3.63-6.005 4.778.132.267 1.137.137 2.173-.121 26.59-3.5 53.036-7.385 79.626-10.885.096.174.195.344.295.518-1.43.473-2.83 1.054-4.29 1.401-7.91 1.875-15.865 3.572-23.735 5.604-2.142.553-3.94 2.373-6.074 3.048-3.494 1.11-7.131 1.756-10.989 2.665 1.523 4.45-2.541 4.05-4.94 5.094-2.574 1.118-5.259 1.988-7.902 2.951-6.553 2.388-13.156 4.643-19.648 7.187-4.34 1.702-9.222 2.817-10.202 8.74-1.646 9.97-8.175 17.949-15.276 24.736-8.475 8.095-17.305 17.19-28.586 21.232-3.246 1.162-4.003 3.97-4.612 6.804-3.078 14.34-6.146 28.682-9.21 43.025-1.548 8.13-3.084 16.261-4.865 24.343-.873 3.967-1.515 7.987-2.54 11.922-.957 3.681-1.982 7.525-4.063 10.755.104-10.287 1.908-30.478 2.22-34.198.23-2.759.412-5.528.6-8.293.14-2.12.836-5.154.013-7.195-1.145-2.728-.545-5.958-.873-9.067-4.972-.308-4.27-6.798-8.546-7.844-.727-.18-1.515-.121-2.25-.278-1.456-.311-2.891-.71-4.342-1.041-.834-.187-1.73-.56-2.517-.416-2.646.487-4.667.32-4.226-2.731-5.045.663-11.083 1.732-15.77 3.623-5.374 2.173-10.578 5.964-15.531 8.965a398.622 398.622 0 0 0-18.005 11.548c-6.057 4.117-11.73 7.338-19.428 11.474 4.744-4.362 17.322-14.866 18.475-15.813 13.465-11.069 12.022-9.77 25.483-20.84 7.407-6.089 15.26-11.772 21.898-18.617 5.516-5.688 12.314-10.507 15.508-18.241.3-.722.89-1.432.892-2.15.022-6.4 2.814-11.576 7.197-15.993-2.483-1.988-5.317-2.436-8.037-3.753-3.299-1.597-6.43-4.243-9.279-6.52-8.461-6.765-13.795-15.755-21.4-23.095-1.087-1.044-2.648-1.597-4.212-2.492l1.095-2.798c-5.95-.217-10.9-1.69-14.662-6.195-.864-1.035-2.943-.97-4.328-1.677-1.952-1-3.813-2.189-5.65-3.398-2.539-1.674-5.086-3.35-7.498-5.195-1.974-1.51-3.739-3.29-5.63-4.907-1.137-.972-2.266-1.98-3.53-2.759-3.084-1.9-7.289-2.585-7.399-7.533-.01-.512-1.685-.97-2.569-1.484-2.833-1.65-5.66-3.313-8.488-4.973l.735-1.322" id="bird"/></g></g></svg>