<svg width="376" height="279" viewBox="0 0 376 279" version="1.1" xmlns="http://www.w3.org/2000/svg" xmlns:xlink="http://www.w3.org/1999/xlink"><title>logo</title><defs><path id="path-1" d="M0 .098v61.634h375.71V.098H0z"/></defs><g id="desktop" stroke="none" stroke-width="1" fill="none" fill-rule="evenodd"><g id="lg/landing" transform="translate(-292 -230)"><g id="section/hero" transform="translate(0 80)"><g id="logo/tagline" transform="translate(292 150)"><g id="logo"><g id="circle" transform="translate(50.843 .022)" fill="#222"><path d="M273.872 169.103c-1.048.807-1.878 2.454-3.146 2.071-.799-.242-1.197-1.248-2.01-1.435-.696-.16-1.351.344-1.886.815l-6.458 5.685c-.983 4.22-2.235 5.48-3.804 9.67-2.238 5.934-4.973 11.802-8.245 17.41a123.504 123.504 0 0 1-11.232 15.93c-8.359 9.944-18.194 18.439-28.498 24.898-2.528 1.69-5.181 3.099-7.724 4.587-2.64 1.316-5.17 2.737-7.785 3.855-5.135 2.44-10.275 4.296-15.164 5.964-4.757 1.394-10.184 3.172-16.033 4.627-5.845 1.392-12.065 2.744-18.185 3.254-12.22 1.302-23.831-.207-29.598-3.797l-1.566-.368a51.479 51.479 0 0 1-4.094-1.074c-3.374-.936-7.832-2.34-12.155-4.084l-3.23-1.285c-1.043-.473-2.07-.94-3.065-1.39-2.004-.863-3.811-1.803-5.36-2.607-1.557-.786-2.846-1.452-3.715-1.982l-1.386-.796 1.101-.384c-7.885-4.288-15.589-9.402-22.79-15.3a136.066 136.066 0 0 1-19.62-19.985c-11.747-14.579-18.552-25.96-22.207-42.58-.019-.08-.033-.15-.051-.23-1.57-.498-3.168-.62-4.68.029-1.64.703-2.795 2.184-4.202 3.284-.78.61-1.69 1.035-2.642 1.342 1.7 7.247 2.854 8.68 5.774 15.862 2.487 5.989 5.458 11.877 8.8 17.662 3.42 5.74 7.288 11.317 11.551 16.695 17.128 21.406 41.704 38.805 70.179 47.303 28.394 8.525 60.408 7.766 89.018-3.195 14.255-5.518 27.635-13.367 39.273-23.202 11.583-9.872 21.625-21.505 29.224-34.431l.89 4.022c8.056-14.248 14.041-27.85 16.623-44.636.15-.951.25-1.902.378-2.854-.828-.025-1.605.13-2.28.65M173.071 7.786c6.161 1.508 12.41 3.709 18.361 6.125 5.95 2.433 11.465 5.403 16.26 8.309l-1.194.324c-4.224-2.058-7.51-2.992-12.603-5.712l-1.98.79c3.417 4.253 12.176 8.151 20.602 12.83 8.456 4.542 16.55 9.82 19.178 12.876 5.515 6.478 2.908 5.081-.173 2.796-3.17-2.215-7.051-5.159-4.056-2.579-3.683-2.722-5.11-3.05-4.85-2.292.112.4.609 1.115 1.37 2.046.74.956 1.704 2.174 2.826 3.5 1.145 1.3 2.322 2.84 3.546 4.39 1.252 1.523 2.436 3.163 3.539 4.735 1.136 1.542 2.142 3.055 2.938 4.42.812 1.349 1.488 2.488 1.88 3.352 2.422 4.623 5.776 10.336 9.106 17 3.335 6.652 6.62 14.264 9.194 22.337 2.413 7.509 5.067 20.097 6.08 27.767.985-.824 1.653-1.708 2.668-2.507.536-.422 1.398.42 2.234.276.639-.112 1.29 1.014 1.634.653 1.343-1.408 2.904-.944 4.105-1.297-.802-3.5-2.99-16.224-4.152-20.088-2.775-9.56-6.781-19.44-10.294-26.772l1.358 1.126c2.578 4.977 3.48 7.547 4.015 8.463.474.943.315.353.043-.645-.543-1.982-1.57-5.651 1.145-1.806 0 0 .467.88.936 1.758.487.872.9 1.778.9 1.778s-.1-.583-.237-1.155l-.279-1.142-1.882-3.526c.567.244.938-.299 2.545 3.129l-1.992-4.957c-.771-2.803-1.265-4.978-1.53-6.651-.33-1.64-.407-2.794-.282-3.593.246-1.598 1.294-1.772 2.65-1.65-1.83-2.58-1.857 1.154-8.287-10.368l1.58 1.032-1.435-1.772c-.876-1.049-1.961-2.503-3.203-3.835a4545.383 4545.383 0 0 0-3.323-3.715c-.922-.993-1.572-1.626-1.572-1.626l-1.66-2.791c-.813-1.416-1.726-2.763-1.726-2.763-3.784-3.557-6.436-5.58-10.045-9.427l-2.199.028c-8.354-8.173-19.408-15.689-31.26-21.54-5.95-2.895-12.086-5.38-18.156-7.531-6.115-2.009-12.103-3.887-17.875-5.243-1.343.077-3.096-.127-5.202-.385-2.103-.288-4.536-.782-7.25-1.095-5.397-.858-11.906-1.214-18.48-.585l5.622 1.639c6.98 1.249 18.587 2.263 30.862 5.569M24.703 73.826c.336-.664-.306.324-.885 1.094.291-.229.577-.485.885-1.094m-1.07 1.337c.06-.076.123-.16.185-.243-.294.233-.597.454-.934.962.289-.24.555-.475.749-.719m-10.581 45.26c.403-.12.545-.294.944-.168.324-1.514.922-3.319 1.438-5.396.426-1.711 1.07-3.511 1.574-5.396.483-1.798 1.123-3.59 1.636-5.382.54-1.875.531-3.867 1.062-5.555.634-2.027 1.712-3.692 2.263-5.154a125.616 125.616 0 0 1 1.907-4.842c.673-1.604 1.117-3.304 1.855-4.876.739-1.577 1.674-3.052 2.474-4.59.805-1.546 1.713-3.024 2.575-4.525.87-1.515 1.814-2.963 2.74-4.425.936-1.476 1.455-3.217 2.443-4.633 1.003-1.436 1.965-2.903 3.019-4.27 1.07-1.386 2.498-2.474 3.618-3.782 1.14-1.334 2.073-2.738 3.26-3.98-.633-.438 1.667-4.101-2.391-.368-1.176 1.406-2.44 2.799-3.627 4.23-1.19 1.435-2.322 2.918-3.486 4.33-1.208 1.465-2.513 2.806-3.649 4.194-1.234 1.506-2.429 2.941-3.524 4.288-1.376 1.717-2.234 3.6-3.34 4.882-2.115 2.451-3.679 3.819-4.375 3.649.064-1.459.523-1.323 1.282-2.57.046-.08.09-.135.134-.202-.63.521-1.397 1.062-1.963 1.772-.831 1.038-1.278 2.369-1.84 3.19-.582.812-1.004.368-1.357 1.121-.719 1.537-.12 1.777-.726 3.362-.53 1.61-.831 1.467-1.67 2.94-1.162 1.371-1.755 1.955-2.105 1.939-.774 1.595-1.508 3.33-2.266 5.051-.722 1.642-1.46 3.33-2.157 5.058-.676 1.677-.986 3.524-1.631 5.257-.635 1.708-1.43 3.372-2.025 5.11-.594 1.736-.853 3.58-1.401 5.323-.553 1.76-1.318 3.444-1.815 5.188-.51 1.787-.708 3.615-1.15 5.361-.033.493-.579 1.185-.612 1.685.781.016 1.5-.939 2.168-1.355 2.187-1.366 4.042-1.91 5.64-2.804 1.622-.91 3.317-1.715 5.078-3.656M135.86 8.1c-.15.007-.297.015-.448.02l.088.01c-.248.106-.034.029.36-.03M80.817 26.594c-.41.24-.705.39-.335.2.108-.066.223-.132.335-.2M135.86 8.101c.282-.012.569-.03.846-.038a3.971 3.971 0 0 0-.846.038M86.15 24.903c-1.102.974-1.168.872-2.421 1.64-1.256.76-1.714.31-2.66 1.437-.227.268.45-.102.763-.26 1.995-1.117 3.855-1.689 5.383-2.454 1.966-.985 3.633-1.765 5.362-2.413 1.738-.652 3.44-1.407 5.548-1.997 1.645-.46 3.55-.737 5.752-1.31.13-.032.106-.12.236-.155.198-.055.17-.162.371-.207.459-.132.963-.134 1.43-.227.858-.604 2.415-.93 4.443-1.383 1.345-.302 2.85-.849 4.588-1.082-.038-.198-.475-.457 1.03-.862 2.436-.262 3.609-.278 4.289-.41 1.263-.244 1.019-.073 4.244-.8-1.554.167-3.81.445-4.608.342-.526-.55.823-.38 1.724-.532.902-.145 2.076-.633 3.291-.747 2.424-.285 2.68.79 4.85-.326-1.365-.26-2.36-.467-.744-.942-1.068-.71 2.04-2.051 3.258-2.891-1.797-.025-3.494.268-4.19.258.204-.36 2.011-1.221 4.075-1.374.06.035.124.072.176.097.984-.07 2.03-.132 3.072-.183-1.42-.13-1.459-.21-2.948-.143-1.522.065-1.52-.104-3.044-.07-.202-.057-.003.22.36.128-.78.168-1.122-.32-1.607.312-.373.482.699-.224 1.304-.151.43.111-.45.322-1.244.5-1.603.205-2.019.003-2.824-.024-.81.07-.725.724-1.521.892-.8.146-.986-.387-1.726-.044-1.126.652 8.554-.263 3.414.79-.799.124-.847-.374-1.652-.286-2.363.438-5.48 1.483-6.998 2.105-2.49-.224-6.593 1.66-7.185.843-2.104.36-3.992.356-5.662.777-1.974.497-3.597 1.507-5.337 2.112-1.73.601-3.606.826-5.505 1.559-1.608.62-3.272 1.523-5.266 2.253-1.167 1.27-.395 2.722-3.494 5.294-.745.278-2.015.557-1.73.233-.68.168-.546.404-1.09.848-.184.144-.445.31-.689.456 1.271-.725 2.79-1.363 3.517-1.479-3.678 2.299 1.845-.624 1.664-.124" id="Fill-1"/></g><path d="M257.393 194.775v-5.19h-2.398v5.19h-1.606v2.306h1.606v13.208h2.398v-13.208h2.55v-2.306h-2.55zm-8.377 12.881c-1.783.884-3.874.868-5.49-.151a5.71 5.71 0 0 1-1.991-2.148 5.97 5.97 0 0 1-.723-2.855c0-1.003.243-1.957.728-2.834a5.692 5.692 0 0 1 2-2.117c.847-.529 1.76-.785 2.792-.785 1.849 0 3.406.718 4.76 2.196l.854.935v-3.383l-.172-.148c-1.488-1.264-3.296-1.905-5.38-1.905-1.48 0-2.846.36-4.062 1.07a7.733 7.733 0 0 0-2.875 2.916c-.693 1.223-1.043 2.588-1.043 4.055 0 1.48.345 2.853 1.026 4.082a7.72 7.72 0 0 0 2.853 2.937c1.21.718 2.581 1.083 4.07 1.083 2.094 0 3.982-.718 5.607-2.134l.17-.146v-3.513l-.871 1.056a6.806 6.806 0 0 1-2.253 1.79zm-24.17-6.814c.13-.617.38-1.204.753-1.75a5.39 5.39 0 0 1 1.88-1.7c1.531-.837 3.409-.84 4.864.003.731.42 1.334.995 1.797 1.705.356.546.609 1.13.753 1.742h-10.048zm9.053-5.264c-1.136-.74-2.477-1.117-3.986-1.117-1.465 0-2.79.371-3.939 1.102a7.473 7.473 0 0 0-2.664 2.949 8.687 8.687 0 0 0-.94 3.99c0 1.445.312 2.801.926 4.028a7.351 7.351 0 0 0 2.654 2.966c1.148.735 2.482 1.108 3.963 1.108 1.512 0 2.886-.368 4.082-1.092 1.198-.724 2.16-1.769 2.859-3.104l.218-.417-2.04-1.183-.24.453a6.041 6.041 0 0 1-1.97 2.22c-.818.552-1.711.82-2.724.82-1.005 0-1.923-.231-2.732-.688a4.842 4.842 0 0 1-1.897-1.953c-.398-.728-.627-1.571-.685-2.513h12.601v-.49c0-1.471-.297-2.843-.885-4.08a7.205 7.205 0 0 0-2.6-2.999zm-16.993-6.4a1.75 1.75 0 0 0-.51 1.243c0 .495.177.92.522 1.26.34.342.775.522 1.261.522.489 0 .912-.17 1.26-.51.346-.342.522-.77.522-1.272 0-.485-.172-.906-.512-1.254a1.79 1.79 0 0 0-2.543.01zm.059 29.605h2.398v-24.008h-2.398v24.008zm-5.52-13.315a5.586 5.586 0 0 1-2.11 2.074c-1.739.98-4.015 1.046-5.752-.026a5.704 5.704 0 0 1-2.017-2.112 5.772 5.772 0 0 1-.736-2.84c0-1.024.247-1.995.73-2.884a5.648 5.648 0 0 1 2.01-2.129 5.253 5.253 0 0 1 2.812-.785c1.085 0 2.085.254 2.968.756a5.602 5.602 0 0 1 2.096 2.082c.507.879.765 1.875.765 2.96a5.7 5.7 0 0 1-.765 2.904zm.812-8.687a8.003 8.003 0 0 0-2.597-1.708 8.35 8.35 0 0 0-3.185-.612 7.87 7.87 0 0 0-4.053 1.093 8.062 8.062 0 0 0-2.917 2.955 8.042 8.042 0 0 0-1.073 4.054c0 1.433.364 2.78 1.082 4.01a8.162 8.162 0 0 0 2.925 2.938 7.83 7.83 0 0 0 4.036 1.093c1.48 0 2.858-.356 4.1-1.058a7.859 7.859 0 0 0 2.951-2.91c.718-1.227 1.082-2.607 1.082-4.103 0-1.128-.21-2.198-.623-3.178a7.863 7.863 0 0 0-1.728-2.574zm-14.3-1.932a4.251 4.251 0 0 0-1.735-.388c-1.116 0-2.026.372-2.72 1.108v-.794H191.1v15.514h2.403v-8.64c0-.95.06-1.8.176-2.53.105-.663.352-1.241.736-1.718.345-.427.865-.635 1.585-.635.242 0 .501.074.77.222l.415.228 1.28-2.143-.507-.224zm-12.36 10.634a5.22 5.22 0 0 1-1.839 2.055c-1.597 1.034-3.887.972-5.45.059a4.863 4.863 0 0 1-1.859-1.94c-.44-.828-.663-1.774-.663-2.81 0-1.105.21-2.142.63-3.08.407-.918 1.014-1.658 1.803-2.198.779-.534 1.723-.803 2.806-.803 1.05 0 1.945.263 2.74.803a5.367 5.367 0 0 1 1.838 2.168c.432.91.65 1.903.65 2.949 0 .992-.22 1.933-.657 2.797zm1.005-8.61a7.061 7.061 0 0 0-2.45-1.783c-1.913-.845-4.427-.888-6.589.211a6.38 6.38 0 0 0-1.676 1.21v-1.736h-2.404v24.008h2.404v-10.198a6.512 6.512 0 0 0 1.728 1.227 7.69 7.69 0 0 0 3.44.792c1.5 0 2.846-.35 4-1.037a7.002 7.002 0 0 0 2.677-2.867c.613-1.2.926-2.56.926-4.044 0-1.12-.175-2.183-.52-3.16a7.894 7.894 0 0 0-1.536-2.623zm-36.596 3.97a4.821 4.821 0 0 1 .752-1.75 5.39 5.39 0 0 1 1.88-1.701c1.521-.832 3.42-.837 4.864.003.729.42 1.332.993 1.798 1.705.355.546.608 1.13.752 1.742h-10.046zm9.052-5.265c-1.135-.74-2.477-1.117-3.986-1.117-1.465 0-2.79.371-3.939 1.102a7.473 7.473 0 0 0-2.664 2.949 8.687 8.687 0 0 0-.939 3.99c0 1.445.311 2.801.925 4.028a7.351 7.351 0 0 0 2.654 2.966c1.148.735 2.482 1.108 3.963 1.108 1.512 0 2.886-.368 4.082-1.092 1.2-.725 2.16-1.77 2.86-3.104l.217-.417-2.04-1.183-.24.452a6.038 6.038 0 0 1-1.97 2.222c-.818.55-1.71.819-2.725.819-1.004 0-1.922-.231-2.73-.688a4.842 4.842 0 0 1-1.898-1.953c-.398-.728-.626-1.571-.685-2.513h12.603v-.49c0-1.471-.299-2.843-.887-4.08a7.205 7.205 0 0 0-2.6-2.999zm-16.374 14.711h2.405v-26.933h-2.405v26.933zm-6.157-4.954a5.05 5.05 0 0 1-1.797 2.166c-.785.53-1.731.8-2.812.8-1.032 0-1.95-.266-2.732-.79a5.334 5.334 0 0 1-1.844-2.144 6.658 6.658 0 0 1-.661-2.926c0-.717.129-1.429.383-2.119a5.97 5.97 0 0 1 1.084-1.846 5.041 5.041 0 0 1 1.633-1.257 4.623 4.623 0 0 1 2.046-.453c.802 0 1.54.139 2.19.417.646.275 1.21.667 1.675 1.162.464.497.826 1.09 1.076 1.76.253.676.379 1.407.379 2.174 0 1.104-.208 2.132-.62 3.056zm.528-8.841a6.698 6.698 0 0 0-1.76-1.246c-2.058-1.014-4.59-1.008-6.523-.192a6.888 6.888 0 0 0-2.425 1.692 7.507 7.507 0 0 0-1.533 2.552 9.16 9.16 0 0 0-.531 3.14c0 1.478.316 2.855.937 4.094a7.285 7.285 0 0 0 2.698 2.978c1.166.725 2.523 1.092 4.031 1.092a7.53 7.53 0 0 0 3.436-.844 6.394 6.394 0 0 0 1.67-1.202v1.731h2.397v-15.514h-2.397v1.719z" id="ale-project" fill="#4B4B4B"/><g id="birds-fly-south" transform="translate(0 119.765)"><mask id="mask-2" fill="#fff"><use xlink:href="#path-1"/></mask><path d="M375.5 43.113c0-.088-.327-.148-.415-.595-.865-.415-.925-.327-1.818-.536l-.566-.089c-.805-.506-1.014-.476-1.071-1.283l-.15-1.34v-3.156c-.12-.15-.478-.923-.509-1.192l-.057-1.131c.057-.148.208-1.431.208-1.55.031-.03.207-.715.207-.925l-.415-.803V26.58c.208-.446.208-.714.208-1.399l-.357-1.073v-2.055c0-.27-.18-1.042-.208-1.073-.568-1.31-2.176-2.472-3.248-2.86-.06-.15-.627-.238-.834-.298-.627-.266-1.073-.774-1.756-.774-1.43 0-2.83.626-4.17.774h-2.117l-.566.298c-.716.388-.924 1.252-1.908 1.252-.715-.477-.982-1.073-1.338-2.055-.418-1.19-.09-2.325-.358-3.399v-.118c0-.653.568-1.072.568-1.787 0-.685-.568-.953-.568-1.669l.568-2.53c0-.148-.21-1.164-.21-1.283V1.528c-.506-.802-.982-1.16-1.907-1.43-1.608.3-2.888.777-4.26 1.283-.12.059-.597.147-.625.147-.06.063-.925.27-.982.27-.062.06-1.492.564-1.7.983-.118.09-.15.296-.15.446 0 .179 0 .208.032.388.626.924.477.864 1.342 1.37.057.06.206.118.357.149l1.605 1.25c.151.267.568 1.61.835 1.847L348.9 9.63c0 1.283.686 2.475.774 3.666l.06.774-.416 9.056c0 .627.15 1.131.268 1.907.03.476.446.683.446 1.102 0 .296-.15.566-.15.597v1.101c-.119 1.013-.296 1.997-.296 3.188l.148 2.949c0 .03-.358.952-.358 1.131 0 .568.21.924.21 1.43l-.42 1.905.21 1.283v.476c-.058.209-.567 1.192-.743 1.28-.865.774-1.7.565-2.979.984l-.865.358s-.327.357-.327.476c0 .864.327 1.789.744 2.265l1.37-.12c1.28 0 2.057-.657 3.158-.657.21 0 .298 0 .567.15l2.621.15h1.192c.415 0 1.129.058 1.963.058.597 0 .865-.358 1.431-.477.358-.09.626-.982.626-1.488 0-.357-.119-.626-.326-.656-.715-.209-1.222.03-1.73-.625-.835-1.34-.744-1.283-1.16-1.816.118-.925.178-1.85.178-2.712 0-.774-.06-1.55-.178-2.324l-.358-1.398-.03-1.64c0-.417 0-.715.09-1.102.119-.299.147-.507.147-.714l-.596-6.14c.18-1.07.568-1.637 1.163-2.47.179-.089.624-.923 1.044-.923h4.647c.208.327 1.34.924 1.577 1.25l.568.15c.326.15 1.458.714 1.55.714.118.151.563 1.192.624 1.49v.775c0 .059.146.416.146.416.358.864.478 1.817.478 2.594 0 1.577-.327 3.393-.478 4.941v.716c0 .626.42 1.222.478 1.969v1.429l.3.624c0 .238-.27.714-.21.656-.09.118-.06.536-.09 1.04 0 .062-.12.835-.208.926-.683 1.55-1.668 1.34-2.384 1.608l-.774.208c-.624 0-.982.595-.982 1.071v.27c0 .389.059.774.358.922.415.21.982.24 1.518.24l2.264.419h3.663l1.787-.301c.626 0 1.282.3 2.057.3h.834c.417 0 .834-.238 1.072-.419h.06c.267-.239.476-.445.476-.772 0-.21-.21-.659-.21-.777zm-32.467-3.394c-1.55 0-2.951.922-4.797.922h-1.133c-.862-.803-1.846-.655-2.473-1.579-.148-.12-.564-.923-.652-.982.146-.925.237-1.816.237-2.8 0-.509-.03-1.133-.09-1.699 0-.208-.12-.446-.12-.715 0-.358 0-.565.12-.804l-.268-3.455v-.537c0-1.162.773-2.203.773-3.276l-.267-2.233c0-.448.568-1.073 1.101-1.073l1.43.148 1.492-.148 1.963.148c1.82 0 3.099-.476 3.099-2.323 0-1.132-.864-2.114-1.965-2.114-1.578 0-2.712.684-4.736.684h-1.402l-.148-.208V14.22c-.09-.777-.266-1.906-1.22-1.906-1.4 0-2.95 2.98-3.606 4.228-.27.358-1.04 1.133-1.55 1.548-1.04.925-3.604.777-3.604 2.415 0 1.489 2.502 1.191 3.28 1.756.206 1.134.683 2.414.683 3.546 0 .21-.12.506-.15.714v.894l-.176 3.098.176 2.979-.385 2.414c0 1.31.328 2.472.535 3.813v2.054c.297 1.55 2.562 2.741 3.9 3.158l3.814.774c.925 0 3.575-.714 4.38-1.609.358-.297 1.34-1.548 1.55-1.726l.416-.597c.417-.595.508-.504.508-1.013 0-.416-.239-1.041-.715-1.041zm-21.36 1.459c-.775 0-1.34.567-2.232.567-.567 0-.925-.834-.925-1.341 0-.418.21-.628.21-1.192l-.21-3.455v-1.848c.179-.21.416-.925.477-1.191l.06-.568c0-.683-.06-1.338-.18-1.906-.09-.715-.178-1.43-.178-2.113l.298-1.192v-2.324c.06-.297.655-2.56.834-3.188.028-.088.567-.983.567-1.072.028-.057.028-.476.028-.566 0-2.8-4.468-2.026-6.314-2.8l-2.384-.925h-.686c-1.28 0-1.787.688-3.127 1.55-.148.118-.148.15-.148.3 0 2.174 5.243 2.026 5.927 4.795v2.173c0 .686.208 1.43.298 2.206.148.773.267 1.519.267 2.293 0 1.013-.772 2.293-.772 3.127l.446 1.969c-.15 1.22-.388 2.411-1.073 3.455-.088.028-.207.238-.207.295-.508 2.265-1.759 2.741-4.082 2.741-.508 0-2.71-.476-3.129-.715-.058 0-.148-.534-.148-.565-.567-.983-1.907-1.104-1.907-2.59v-5.242c.09-.21.148-.33.148-.628l-.207-.834.358-2.77c.207-2.442 0-4.648.714-6.97v-.09c0-1.816-.774-3.515-2.891-3.515-.802 0-1.517.298-2.411.298l-2.412-.148h-1.192c-.923 0-1.758.119-1.758 1.458 0 1.074 1.339 1.371 2.173 1.848.3.15 1.7 1.905 1.85 2.471v5.57l.207 2.266c-.298.416-.358.98-.358 1.608 0 .595.418 1.161.418 1.847l-.418 1.49v.268c.06.09.358 1.13.358 1.22 0 .417.06.982.06 1.759 0 .772-.06 1.488-.06 1.756.983 3.336 2.323 2.681 5.211 3.813.509.27 1.135.299 1.76.299.567 0 1.22-.03 1.847-.3 0 0 .268-.149.416-.149.03-.118.806-.743.863-.772.12-.062.508-.15.896-.269.386-.089.803-.208.862-.27.776-.357 1.49-1.219 2.265-1.219.686 0 .504 2.382 1.19 3.307h.716c1.252 0 2.117-.061 3.754-.181 1.341-.923 5.154-.565 5.154-2.56 0-.626-.448-1.281-1.222-1.281zm-34.37-4.945l-2.056 3.247c-.713.773-1.49 1.37-2.473 1.907l-.357.386c-.625.387-.983.387-1.548.387-.983.15-2.026.447-2.89.447h-1.19c-1.073-.447-1.7-1.548-2.475-2.53l-1.131-1.073c-.775-.984-1.609-2.564-1.906-3.875-.151-.772 0-1.01-.628-1.756v-3.247c.27-.178.27-.358.27-.654 0-.626-.27-1.072-.27-1.611v-.773l.477-1.22.15-.924c0-.358.15-.714.298-1.134l2.888-3.366 1.818-1.071h.208c.984 0 1.7.297 2.712.447l1.459.177c.984.15 1.639.805 2.354 1.58l.893.627c0 .296.628 1.458.834 1.606l1.519 1.758c.538.715.686 2.475.953 3.427l-.267 1.13c0 .776.476 1.253.476 1.937 0 .565 0 .746-.21 1.073l.092 3.098zm4.29-11.647l-.18-.356c-.179-.42-.954-1.55-1.131-1.73-.597-.745-.925-1.58-1.729-2.202-.953-.628-1.906-1.135-2.89-1.7 0 0-.625-.684-.772-.684h-1.134c-1.13-.3-2.323-.805-3.456-.805-.148 0-.415 0-.772.147h-3.04c-.209 0-1.25.21-1.55.358l-1.607.627h-.447l-.477.207-.567.567c-.415.358-.922.148-1.34.655l-1.757 1.25c-.209.149-.566.658-.566.658l-.358.626-.833.982c-1.073 1.996-1.907 3.902-2.471 5.985l-.24 2.622.24 2.326c0 1.55 1.04 2.621 1.756 3.901.416.564.893 1.192 1.341 1.966.477.715.892 1.608 1.607 1.996l.715.327 2.95 2.057.298.148 1.905.148.834.18c.566 0 2.503.089 2.83.089l3.04-.088c.834 0 1.13-.389 1.844-.538.27 0 1.255-.24 1.402-.24l1.787-1.04c.418-.208.894-.208.954-.27.386-.296.714-.715.953-1.01.06-.062.119-.119.119-.151.863-.984 1.759-2.175 2.562-3.247l1.548-4.556v-2.145l.18-.745v-.953c0-.18-.18-1.102-.386-1.548l-1.163-3.814zm-31.877 2.203c-.148-.148-.297-.566-.448-.834l-.534-1.488s-.358-.358-.507-.42l-3.456-2.201c-1.907-.865-2.74-1.192-4.647-2.384l-.297-.21c-3.546-1.01-6.582-2.858-6.582-7.089 0-1.699.294-1.699 1.071-3.455.982-2.233 2.055-3.186 4.677-3.186 1.757 0 4.229.238 5.778 1.28 1.28.865 4.14 6.017 4.735 6.017.15 0 .21 0 .21-.06.119 0 .358-.178.416-.388.27-1.1.3-1.668.3-2.741v-.771l-.24-3.518.568-1.935c0-.625-.15-1.549-.925-1.549-1.696 0-2.442 2.116-3.992 2.116-1.072 0-1.847-.538-2.859-.777-1.518-.356-3.01-.565-4.707-.565-1.132 0-1.906.923-2.919 1.132-1.042.21-2.232 0-3.066.807-2.773 2.172-4.41 6.252-4.41 9.588 0 2.742.296 3.308 2.114 5.482.15.239.507.777.566 1.071.387.659.299 1.283 1.014 1.908.922.864 1.487.625 2.621 1.429l1.55 1.61c.176 0 1.338.297 1.548.297.685.328.891.834 1.459 1.253 1.162.358 2.204.149 3.276.772.179.15.746.3.776.3 1.608.715 1.131.625 2.084 1.964.389.477.953.777 1.28 1.223l.062.179c.296 1.132.387 1.49.387 2.354v.477c0 .294-.149 1.756-.149 1.905 0 0-2.206 4.11-2.533 4.11l-1.222.328c-.148 0-.685.21-.834.358-.207.148-1.34.925-1.578 1.071-.06.06-.267.06-.536.06h-.565c-1.134 0-6.792-1.341-7.299-2.471-1.31-2.264-2.296-4.232-3.813-6.346-.208-.417-.536-.565-.954-.565-.387 0-.446.208-.595.506l-.565 5.69v.744c0 4.766 4.823 3.634 7.864 4.766l5.839.21c.148 0 .357.029 1.429.088h.358c3.036 0 3.512-1.966 6.611-3.038.447-.267.3-.925.657-1.401.327-.209 1.488-1.192 1.698-1.908.178-.148.686-1.844.774-2.053 0 0 .06-.267.206-.298.21-.327.42-.953.42-.985V30.87c0-.416-.626-1.875-.833-2.382 0-.208-1.073-1.55-1.283-1.699zM218.38 16.275c-.059 0-.207 0-.207.059-.15 0-.658.088-.658.15h-.683c-.924.268-1.55.625-2.472.625l-.984-.21c-.15-.058-1.757-.147-1.907-.147l-.715.09c-.507.326-1.19 0-2.264.565-.268.416-.507.834-.507 1.341 0 .148.03.358.15.683l.985.716c.028 0 .206.208.595.208.385.09 1.459.447 1.756.626.15.088.565.597.565.655v1.25c.063.033.27.448.33.597 0 .835-.895 1.49-1.132 2.324 0 .119-.12.894-.18.982l-.448 1.254c-.057.088-.148 1.01-.148 1.071-.179.148-.267.716-.267.834a51.02 51.02 0 0 1-1.341 3.752c0 .09-.15.419-.15.419-.208.148-.565.564-.565.564-.207.446-.626.597-.835.597-.268 0-.655-.179-.922-.597-.15 0-.419-.564-.476-.834l-.449-.922c-.118-.119-.328-.626-.356-.686-.06-.03-.418-.567-.418-.595-.058-.12-.15-1.459-.15-1.55-.266-1.131-1.549-1.877-1.697-3.008l-.357-1.906c-.209-.715-.893-1.222-.981-1.996 0-.12-.568-1.49-.628-2.117.27-.267.656-.088.922-.207l.51-.15a3.277 3.277 0 0 0 1.755-.981c.269-.3.329-1.074.329-1.402 0-.566-1.34-1.22-2.085-1.22l-.803.147h-1.343c-.119 0-1.399.21-1.906.42-.119.056-1.341.295-1.46.295h-.772l-.777-.296c-.148 0-.654-.061-1.072-.061-.478 0-.864.061-.982.061-.625-.357-1.192-.566-1.789-.566-.743 0-1.31.238-1.31 1.64 0 .266.478.357.624.682l.27.389c1.37.685 2.709 1.042 3.844 1.964.177.062.415.358.415.477.061.061.18.567.18.626.566 1.222 1.579 2.92 1.907 4.201 0 .12.088 1.459.148 1.55 0 .057.238.267.298.327 0 .03.27.595.297.655l1.101 2.83.984 1.4.418 1.072c.03.059.863.747.925.953.028 0 .146.716.146 1.072.091.15.21 1.343.24 1.43l.952 1.609c0 .148.506 1.847.568 1.996.029.327.772 1.757.772 2.026.03.088.15 1.43.15 2.054 0 .06.06.3.06.418 0 .834-.267 1.341-.686 2.057l.21 1.249c-.21.356-1.044 1.936-1.074 2.263-.058.21-.21 1.135-.21 1.223-.206 1.102-.356 1.398-.982 2.382-.146.208-.328.208-1.042.208-.415 0-.654.031-.772.031l-.659.207-1.1-.207c-.092 0-1.014.119-1.282.207-1.34.388-1.964.954-2.145 1.878-.177.417-.177.655-.177 1.013 0 1.699 2.114 2.741 3.603 2.741.387 0 .834 0 1.31-.151l.598-.476c.774-.238 1.548-.207 2.084-.923.417-.445.298-.507.774-.922.387-.357.716-.357.864-.925.09-.118.476-1.043.476-1.131.658-1.49.925-1.7.925-1.7 0-.118.09-.772.147-.834l.834-1.071c.3-.924.15-3.008.925-3.604 0-.387.09-2.235.148-2.68 0 0 .21-.747.358-.954 0-.03.21-.239.268-.299.447-.862 1.161-1.845 1.223-2.83.266-1.638 0-3.394.326-5.005l.865-1.757c.358-.655.358-1.369.773-2.203.062 0 .27-.506.27-.567v-1.073c.297-1.25 1.22-2.501 1.787-3.513.15-.061.626-.983.683-1.071v-1.55c.03-.119.658-.984.658-1.104.057-.03.148-.865.148-.922.059-.09.179-.447.179-.657.507-1.042.922-2.114 1.579-3.156 1.192-.299 2.174-.21 3.099-1.072l1.129-.925c.27-.328.627-.416.627-.894 0-.774-2.057-1.488-2.741-1.488zm-29.305 25.707c-.182.058-.239.058-.358.058-.21 0-.448-.088-.865-.357-1.34-.296-1.042-.715-1.34-1.042-.089-.03-.089-.207-.21-.207h-.058l-.21-.448c-.029-.298-.505-2.53-.565-2.95v-.029c0-.328.208-1.727.27-2.236.087-1.071.208-1.696.208-2.709-.12-1.875-.418-2.8-.478-4.496v-.478c0-.714.357-1.372.536-2.263-.058-1.55-.058-2.922-.21-4.47-.057-.535-.357-.834-.357-1.249.21-.806.658-1.43.806-2.057l-.21-1.907c.12-.207.12-.507.12-1.28 0-.507-.058-.775-.207-1.102l.088-2.057-.03-1.55c0-.952.03-1.934.358-2.769.148-.862.21-1.814.21-2.74 0-.925-.062-1.907-.21-2.918 0-.27-.328-.27-.715-.27-1.609.062-2.65.686-4.142 1.072-.148.21-1.55.834-1.696.834-.418.09-1.43.419-2.265.627-.416.088-.567.774-.567 1.072.063.208.15.208.448.834.477.985 2.65 1.637 3.098 2.353.06.953 0 1.61.267 3.01.27 1.012.27 2.056.27 2.918 0 .625-.477.834-.477 1.34 0 .686.207 1.044.507 1.254-.15.624-.15 1.191-.15 1.756 0 .595 0 1.073.15 1.699-.3.206-.3.237-.3.445 0 1.875.09 3.783.21 5.631l.21 3.1c.056 1.07.089 2.112.207 3.185-.118.564-.118 2.057-.118 3.455v3.306c0 1.162-.804 3.07-1.789 3.756-.15 0-.564-.063-.984-.151-.357.15-1.1.208-1.249.208-.03 0-.656 0-1.014.15l-.685 1.072v1.399l.358.3h.627c.207.058.357.058.477.058l1.577-.148c.924 0 2.026.148 2.95.237 1.488-.028 2.353-.385 4.109-.447.061 0 .15.062.15.062l1.461.088c.148 0 1.22.06 1.338.088l.925.12c.477.09.773.09 1.041.09.3 0 .656 0 .985.06.238-.089.297-.358.297-.627v-1.011c0-.42 0-.686-.209-.834-.715-.714-1.965-.714-2.59-.835zm-14.33-37.294c-.061-.061-1.31-1.253-1.46-1.253a8.4 8.4 0 0 0-1.847-.208c-.715 0-1.402.06-2.026.208-.386.18-.595.328-.953.328-.267 0-.982-.686-1.34-.834-.686-.09-1.31-.148-1.906-.148-.834 0-1.61.059-2.533.148-1.756.148-3.455 0-4.917.506-.801.119-1.577.18-2.411.18-.834 0-1.64-.061-2.354-.18-.534.18-1.041.18-1.46.18h-.654c-1.041 0-1.757-.476-2.59-.476-.27 0-.301 0-.508.296-.715.119-1.46.21-2.057.21-.683 0-1.34-.091-2.026-.21-.356-.446-.922-.506-1.486-.506h-.716c-.686 0-1.757.477-2.382.834v.449c0 2.44 4.17 1.816 5.57 2.382 1.131.506 2.68 2.055 2.68 3.455.21.804.267 1.58.267 2.353 0 .834-.12 1.668-.266 2.442-.06.149-.148.656-.148.807 0 1.249.714 2.649.714 3.989v2.294l.357 1.31c0 .031.057.776.057.986 0 1.367-.624 2.62-.624 3.96 0 4.437.506 5.81.506 10.037 0 2.383-4.823 4.022-6.73 4.17-.627.42-.984.985-.984 1.611.27.923.865 1.074 1.756 1.399h1.135c.148 0 .294 0 .445-.059.269 0 .477.09.745.147.654-.147 1.012-.623 1.488-.771 1.014.148 1.849.207 2.89.207.923 0 1.907-.06 2.829-.207 1.016-.27 1.43-.3 2.265-.3 1.548 0 3.665.419 5.003 1.134l.567.147c.776.06 1.221.09 1.76.09.385 0 1.01-.03 1.429-.09h.057c.806 0 1.699-1.19 1.699-2.025 0-.806-.834-1.283-1.25-1.64-.24 0-.506 0-.774-.058-.24-.03-.597-.03-.865-.03-.267 0-.477 0-.773.03-.27.058-.476.058-.777.058-.148 0-.922-.088-1.073-.147 0-.06-.325-.418-.356-.418-1.607-.834-3.456-1.756-4.08-3.693.059-.27.147-.565.147-1.907 0-2.86-.505-5.688-1.13-8.61 0-.744.625-1.458.983-1.876 1.072-.03 2.354-.564 3.395-.564l1.818.327c1.073.206 2.68.237 4.052.237h1.338c1.968 1.132 2.682 2.742 3.516 4.647l.418.924c.416.418.624.984 1.22.984.357 0 .357-.151.537-.477.148-.09.148-.358.148-.954 0-1.906-1.401-3.574-1.401-5.57 0-1.133.21-2.234.42-3.604a12.27 12.27 0 0 0 .295-2.74v-1.252c-.207-.447-.415-.447-.652-.447-2.327 0-1.135 4.112-2.832 5.242-1.132.834-4.23.834-6.344.834-.777 0-1.401.062-1.848.09-.208.417-.415.417-.685.417-1.222 0-2.533-.417-3.753-.564-.21-.239-.624-.777-.624-1.135l.476-4.437c0-1.072-.627-1.935-.627-2.86l.27-1.878c0-1.01-.42-1.787-.42-2.71 0-.476.091-1.755.3-1.905.684-.418.835-.685.835-1.519 0-.18.028-.507.446-.656.476-.269 1.131-.269 2.651-.269.653 0 1.43 0 2.084-.21h2.294c.03-.027.239-.027 2.353-.027.061-.06.15-.06.328-.06 2.054 0 3.337.417 5.333 2.175l1.459 1.519c0 .059.09.893.148.953.15.239.865 1.728.865 1.907.388.595 1.31 1.7 1.756 2.263 1.135 0 1.135-1.251 1.135-2.175 0-1.042-.21-1.995-.597-2.948V4.688zm-54.327 28.864c-.06-.06-.418-.744-.418-.774-.715-1.966-1.132-2.83-2.89-3.964l-.923-.625h-1.756c-.358-.058-1.135-.832-1.906-.893h-1.64c-.625-.088-1.669-.208-2.085-.564-.446-.42-.15-1.164-.566-1.492-.595-.625-1.133-.358-1.133-1.22.119-.267.358-.954.358-1.133l-.148-.626c0-1.607 3.603-2.679 4.856-2.679.653 0 1.041 0 1.19.149.716.567 1.28.686 2.056 1.28l.416.359c.24.564.776 2.083 1.192 2.383.18.057.18.504.298.565l.297.507c1.55 0 1.104-2.922 1.311-4.023.179-.237.179-.567.179-.862l.06-.777c0-.506.476-.863.476-1.488 0 0-.15-.328-.15-.419-.12-.057-.207-.147-.326-.147-.06-.06-.088-.06-.15-.06-.414 0-1.073.508-1.488.508l-1.699-.716-2.382-.356-1.907.267c-.446 0-.865-.267-1.28-.267-.119 0-.476.267-.507.267-.119.028-.477.148-.537.148-.297.061-1.338.657-1.548.657 0 .175-.387.533-.567.624-.03.267-.954 1.044-1.073 1.25-.477.358-.714 1.074-1.399 1.223-.507.891-.922 1.756-.922 3.008l.415.953c.42 1.816.268 3.932 1.906 5.153l1.82 1.102c.594.446 1.07 1.371 1.905 1.49 2.502.506 4.528.506 6.434 2.265 1.132.98 1.7 1.906 1.7 3.455v.267c0 .388-.062.507-.359.805-.476.567-1.817 1.816-1.905 1.907-.12.148-1.283.476-1.7.624-.15 0-1.549.09-1.668.15l-.865.15c-.982 0-1.816-.3-2.264-.924-.267-.358-.923-.449-1.13-.925l-.983-1.43c-.12-.565-.208-.534-.715-.772-.477-.27-.566-2.384-.776-2.384-1.309 0-1.548 3.157-1.548 4.14 0 .298-.21.953-.21 1.58 0 .207.062.477.091.625 1.31 1.281 1.966 1.548 2.95 1.846l.506.27c.058 0 .686.087.834.148.058 0 .98.416 1.071.476.12 0 1.044.239 1.252.298h1.013c.535.088.774.088 1.727.15.389 0 1.073-.508 1.43-.627.06-.03.923-.15.985-.15l.77-.147.358-.477s.568-.298.628-.358c.388-.297 1.699-1.728 1.787-1.847.894-1.04 1.398-3.336 1.398-4.587v-1.013c0-.27-.414-1.31-.414-1.398l.268-.925zm-29.645 5.153c-.088.21-.15.507-.15.656 0 .148.062.209.062.415 0 .21 0 .3-.061.477-.209 1.134-3.87 1.58-4.529 1.58-1.459 0-2.59-.803-3.78-1.399-3.965-1.73-5.304-5.393-5.304-10.128 0-3.04 2.474-10.16 6.494-10.16h3.039c.267 0 .624 0 .982-.058.834.147 3.247 2.264 3.398 2.95l.476 2.202.207.567v6.405c-.207.239-.268.654-.268 1.011l.061 1.044c0 .98.358 1.847.358 2.68 0 .627-.834 1.58-.985 1.758zm10.367 3.277c-.508 0-1.28.178-2.114.178-2.474 0-2.89-2.532-2.89-4.704v-2.208l.626-4.02-.358-5.719.358-3.157-.358-2.054.208-2.535c0-.774.507-1.43.507-2.263 0-.714-.357-1.548-.357-2.472l.772-2.74V7.606c0-1.52.567-2.98.567-4.736 0-1.133-.982-2.502-2.323-2.502h-3.455c-.774.238-3.187.655-4.378 1.43-.27.149-.567.507-.567.864 0 .327.267.625.416.892.985.627 1.073.925 1.638 1.341.983.803 2.117 1.013 2.117 2.205 0 .476-.149.834-.149 1.25 0 .716.149 1.49.149 2.057 0 2.174-.3 4.528-.925 6.582-.209.568-2.472.982-3.098.982-.358 0-.773-.414-1.28-.414-1.192 0-2.384.414-3.515.743-3.813.863-5.929 1.37-8.221 4.738l-.776.922c-.388.297-.745.297-.953.774-.357.775-.357 2.681-.595 3.485l-.358.952-.06.449.06 1.132c0 .476-.06.834-.417 1.25 0 3.1.21 3.485.21 3.667l1.16 2.201c.208.657.327 1.4.685 1.968 1.548 2.144 3.605 3.842 6.704 4.258.832.477 1.905.776 2.62.776h.357c2.265 0 4.17-1.133 6.346-1.76h.773c.507 1.55 1.341 2.534 3.097 2.534.51 0 1.073-.446 1.64-.446l1.759-.27 1.788.152c1.756 0 3.364-.21 3.364-1.97 0-.594-.148-1.13-.774-1.13zm-30.835-22.55c-.476-.684-.98-1.342-1.906-1.342h-.326c-.06 0-.984.358-1.072.358-.208.061-1.28.15-1.4.15-.15.15-.777.565-.834.627l-1.223.922c-.207.27-1.132.865-1.46.922 0 .062-.176.062-.296.062-1.548 0-.657-2.025-1.223-2.89a27.51 27.51 0 0 1-.774-.715h-.476c-1.55 0-2.384 1.43-3.904 1.905-.119 0-1.19.09-1.338.24-.329.06-1.311.536-1.46.627l-1.428 1.457 1.756 1.64c0 .058.356.505.387.505.684.894 1.697 1.759 1.907 2.89 0 .209.119 1.253.176 1.49 0 .148.15 1.816.21 2.322v.21c-.06.148-.21 1.281-.21 1.43v4.586l-.176.894c-.03.298-.03.774-.03 1.34 0 .447 0 1.015.03 1.19-.03.031-.21.568-.449.568l-.713.239c-.418.148-.418.535-.745.714-.238.12-.924.267-1.372.745-.207.21-.771.299-.771.595v.567c0 .179.088.416.237.625.564.268.773.328.891.357.062.062.21.119.24.119.685.09 1.043.15 1.102.15l.418.297h.504l1.907-.447 1.341.447c1.041 0 1.996-.447 3.098-.447.418 0 .803.15 1.132.15.357 0 .925 0 1.579-.06l.952-.09c.238 0 .508-.057.596-.119.27-.208.419-.357.419-.772 0-.508-.268-.953-.507-1.283-.834-.447-2.114-.625-2.682-.834-.476-.147-.774-.566-1.131-.743-.12 0-.207-.18-.207-.21-.151-.386-1.044-1.878-1.135-2.324-.057 0-.057-.118-.057-.15l.207-1.1-.207-1.013c0-.418.207-.685.207-.953l-.207-1.013.207-2.681a6.937 6.937 0 0 1-.15-.774v-1.55l-.148-.834.148-2.145c0-.567 1.135-1.965 1.55-2.053l.356-.477 1.073-.3 1.281.21c.18 0 1.252.09 1.817.804.658.891.3 1.25 1.969 1.25a6.08 6.08 0 0 0 1.22-.149c1.251-.893 1.758-2.442 1.758-4.348 0 0-.21-.239-.21-.3-.209-.327-.147-1.13-.448-1.489zm-28.969-4.208H42.5c.386 0 .924 0 1.163-.27.118-.06.834-.655.891-.834.03 0 .777-.239.865-.297.774-.686.922-1.55.922-2.53 0-.301-.415-2.265-.773-2.356-.237 0-1.429-.12-1.73-.267-.118 0-.834-.3-.952-.356h-.296c-.477 0-1.134 0-1.61.356l-.296.624-.984.776-.923.922-.062.865c0 1.25.715 1.966 1.401 2.948.568.42.775.42 1.22.42zm5.333 26.936c-.266-.057-.892-.327-.892-.773-.031-.627-.358-3.455-.358-4.141 0-.567.119-2.77.15-2.979v-.624c-.031-.091-.15-.659-.15-.777-.06 0-.06-1.01-.06-1.55 0-.295 0-1.368.06-1.43l.15-1.072c.058-2.65 0-5.124.208-7.683l.206-.714v-.955c0-.387-.057-1.014-.415-1.162-.237-.119-1.28-.329-1.49-.329-.088 0-.625-.057-.835-.057l-.863.057c-.567.628-.834.568-1.548.925l-2.205 1.132c-.626.179-1.55.179-1.55 1.041.3.834.867 1.341 1.55 1.818l.922.299c.358.267.777 1.071.925 1.49v2.827c0 .358.358 1.76.358 1.907v1.758l-.148 2.681v2.772l-.358 1.399c-.328 1.192-.328 2.414-.476 3.753-.449.745-1.223.775-2.117.775h-.655l-.565.326c-.119.15-.567.925-.567.985 0 0 .148.865.239.922.416.238.624.42.774.42.27 0 .476-.27.953-.27l2.502-.15h.834c.151 0 .834.15.865.15h3.664l.715.297h.535c.625 0 1.221 0 1.698-.385.357-.21.419-.777.419-1.342 0-.564-.21-.894-.477-1.192-.3 0-1.759-.118-1.998-.15zm-20.185-3.098c-.357.3-1.55 1.698-1.968 1.849-.596.683-2.114 1.756-3.036 1.756l-1.373-.15c-.624 0-.982.357-1.725.357-1.016 0-1.73-.625-2.564-.98-.268-.149-.478-.3-.863-.507-2.026-1.043-1.669-.953-1.908-4.082l-.416-1.399.208-1.072c0-1.342-.415-2.593-.415-3.666l.415-4.17c0-.477-.208-.775-.208-1.4.208-.209.595-1.28.774-1.578l1.728-.179c1.342 0 2.59.477 4.202.626h1.517c1.55.208 2.681.773 3.932 1.698 2.772 2.323 3.13 6.047 3.13 9.531 0 1.311-1.073 2.264-1.43 3.366zM12.838 8.65V7.43c.15-.687 1.937-1.968 2.501-1.968 1.135 0 1.878.983 2.891 1.133.151 0 1.104.148 1.28.148 3.248.298 4.796 3.515 5.572 6.345l.416.775v.506c-1.013 2.621-2.323 5.66-4.647 7.566-.179-.03-.388-.03-1.132-.03-1.429 0-3.038.15-4.408.3l-1.697.564-.389-.507c-.179-2.233-.802-4.704-.802-7.268 0-1.13.623-2.679.623-3.962l-.208-2.382zm18.32 17.218c-1.013-.627-1.847-1.252-2.978-1.847-.774-.33-4.111-.776-4.111-1.459 0-1.492 2.77-1.222 3.337-1.907l.325-.626c1.283-.803 2.296-1.132 3.13-2.471.564-1.135.834-2.713.834-3.844 0-3.01-.685-3.992-2.442-6.494-1.908-2.68-4.738-2.65-7.568-3.813l-1.222.148-2.44-.148-9.622.357c-.148-.267-2.324-.357-3.724-.357H3.606c-.925 0-3.607 0-3.607 1.43 0 1.966 3.607.924 4.946 2.888.714.626 1.339.568 1.697 1.402l.15 4.736c0 .804-.298 1.55-.298 2.56 0 .182.417.896.417 1.135v1.905l.207.893c0 .657-.476.984-.476 1.579l.777 3.039c0 .624-.508.953-.508 1.759 0 .625.207.743.207 1.399 0 .922-.476 1.995-.476 3.037 0 .625.476 1.073.476 1.76 0 .921-.207 1.697-.476 2.62-.267 2.384-.058 4.529-1.487 6.555-.27.146-4.647 1.28-5.005 1.696v.148c0 1.044 3.098 1.46 3.456 1.46 2.113 0 4.08-.564 5.985-.564 2.413 0 4.589.176 6.883.385.564-.21 1.192-.297 1.816-.297.506 0 1.072.088 1.64.297l1.339-.447c2.115-.148 3.603-.624 5.719-1.28.21 0 .567-.27 1.966-.27 1.28-.414 5.302-4.735 5.927-5.775.567-.986.567-2.355.567-3.813 0-2.742-2.174-4.948-3.307-7.122l-.983-.654z" id="Fill-6" fill="#222" mask="url(#mask-2)"/></g><path d="M66.538 20.127l3.347-.213c-3.013-1.733-6.68-1.992-9.079-4.534l.17-.714 12.95 1.846.182-.312c-1.079-.587-2.117-1.267-3.242-1.742-3.604-1.516-7.304-2.818-10.83-4.49-1.408-.669-2.439-2.114-3.68-3.16-.533-.447-1.176-.759-1.751-1.16-.692-.48-1.366-.989-1.825-1.903l1.253.01-1.683-2.152c1.233.359 1.912.5 2.547.75 11.028 4.357 22.065 8.688 33.068 13.11 5.075 2.04 10.039 4.36 15.127 6.364 2.61 1.028 5.455 1.463 8.073 2.478 5.182 2.011 10.37 4.052 15.384 6.44 3.454 1.646 6.566 3.857 8.592 7.404 1.744 3.056 4.484 2.831 6.292-.16 3.643-6.024 12.34-7.72 17.933-2.751.894.795 2.255 1.063 3.485 1.613-.788.624-2.427 1.932-3.198 2.543.07.142.606.073 1.157-.064 14.157-1.864 28.237-3.932 42.394-5.795l.157.275c-.76.252-1.507.562-2.284.746-4.211.999-8.447 1.902-12.636 2.984-1.14.294-2.098 1.263-3.234 1.622-1.86.591-3.797.936-5.851 1.42.81 2.369-1.353 2.156-2.63 2.712-1.37.595-2.8 1.058-4.207 1.571-3.49 1.271-7.005 2.472-10.461 3.826-2.31.906-4.91 1.5-5.432 4.653-.877 5.308-4.352 9.557-8.133 13.17-4.512 4.31-9.214 9.153-15.22 11.305-1.728.618-2.131 2.113-2.455 3.622-1.64 7.635-3.272 15.271-4.904 22.907-.824 4.33-1.642 8.658-2.59 12.96-.465 2.113-.807 4.254-1.352 6.348-.51 1.96-1.055 4.007-2.164 5.727.056-5.477 1.016-16.227 1.182-18.208.123-1.469.22-2.943.32-4.415.074-1.13.445-2.745.007-3.83-.61-1.454-.29-3.173-.465-4.828-2.647-.164-2.274-3.62-4.55-4.177-.387-.095-.807-.064-1.198-.148-.775-.166-1.54-.378-2.312-.554-.444-.1-.92-.298-1.34-.221-1.408.26-2.485.17-2.25-1.455-2.686.354-5.9.922-8.396 1.93-2.861 1.156-5.632 3.175-8.27 4.773a212.231 212.231 0 0 0-9.585 6.148c-3.225 2.192-6.245 3.907-10.344 6.109 2.526-2.322 9.222-7.915 9.837-8.42 7.168-5.893 6.4-5.2 13.567-11.095 3.944-3.241 8.125-6.267 11.66-9.912 2.935-3.028 6.555-5.594 8.255-9.712.16-.384.474-.762.475-1.145.012-3.407 1.499-6.163 3.832-8.514-1.322-1.058-2.83-1.297-4.279-1.998-1.756-.85-3.423-2.26-4.94-3.471-4.505-3.602-7.345-8.389-11.394-12.297-.579-.556-1.41-.85-2.242-1.327l.583-1.49c-3.168-.115-5.804-.9-7.806-3.298-.46-.55-1.567-.516-2.305-.892-1.04-.533-2.03-1.166-3.008-1.81-1.352-.89-2.708-1.783-3.992-2.766-1.05-.803-1.99-1.751-2.998-2.612-.605-.517-1.206-1.054-1.88-1.469-1.64-1.011-3.88-1.376-3.938-4.01-.006-.273-.897-.517-1.368-.791-1.508-.878-3.014-1.764-4.52-2.647l.392-.704" id="bird" fill="#00AFC4"/></g></g></g></g></g></svg>