<?xml version="1.0" encoding="UTF-8" standalone="no"?>
<svg width="57px" height="48px" viewBox="0 0 57 48" version="1.1" xmlns="http://www.w3.org/2000/svg" xmlns:xlink="http://www.w3.org/1999/xlink">
    <!-- Generator: Sketch 39.1 (31720) - http://www.bohemiancoding.com/sketch -->
    <title>bird</title>
    <desc>Created with Sketch.</desc>
    <defs></defs>
    <g id="desktop" stroke="none" stroke-width="1" fill="none" fill-rule="evenodd">
        <g id="lg/landing" transform="translate(-692.000000, -4353.000000)" fill="#E5E5E5">
            <g id="footer" transform="translate(0.000000, 3621.000000)">
                <g transform="translate(0.000000, 696.000000)" id="bird">
                    <path d="M697.32954,42.9584691 C697.717773,42.9336882 698.106007,42.9089073 698.586756,42.8786196 C697.455096,42.2277087 696.07728,42.1302373 695.176357,41.1753476 C695.197283,41.0861365 695.21876,40.9969253 695.240237,40.9071635 C696.862007,41.1384517 698.483227,41.3691891 700.104997,41.6004773 C700.127576,41.5613786 700.150704,41.5222798 700.173283,41.4831811 C699.767978,41.2629067 699.378092,41.0073884 698.955165,40.8289661 C697.601579,40.2595567 696.211647,39.7705475 694.887247,39.1422147 C694.358038,38.8911018 693.970905,38.3481254 693.504474,37.9554862 C693.304575,37.787527 693.062824,37.6702308 692.846955,37.5198935 C692.587031,37.3392685 692.333716,37.1481804 692.161351,36.8045523 C692.300124,36.8056537 692.438346,36.8067551 692.632188,36.8084071 C692.464228,36.5936396 692.31334,36.4008995 692,36 C692.463127,36.1349181 692.718095,36.1877839 692.956542,36.2819513 C697.099353,37.9185902 701.245468,39.5453169 705.378367,41.2067367 C707.284842,41.972741 709.149465,42.8444771 711.060897,43.5972649 C712.041669,43.9832959 713.11,44.1468496 714.093525,44.5279244 C716.0402,45.2834657 717.989078,46.0500207 719.872424,46.9470882 C721.169841,47.5655087 722.338947,48.3959433 723.099995,49.7286036 C723.755312,50.8762333 724.784544,50.7919783 725.46354,49.6685788 C726.831995,47.4052591 730.099215,46.768666 732.200083,48.634941 C732.536001,48.9334129 733.047038,49.0341884 733.509063,49.2406957 C733.213345,49.475288 732.597678,49.9664999 732.308017,50.196136 C732.33445,50.2495526 732.53545,50.2236703 732.742508,50.1719058 C738.060484,49.4719838 743.349823,48.6949658 748.667799,47.9950438 C748.687073,48.029737 748.706897,48.0638796 748.726722,48.0985728 C748.440916,48.1932908 748.160617,48.3094856 747.868753,48.378872 C746.286632,48.7538892 744.6957,49.0931118 743.121839,49.4995181 C742.693406,49.610206 742.333808,49.9742095 741.907026,50.1091276 C741.208205,50.3310541 740.480749,50.4604653 739.709238,50.6421917 C740.013767,51.5321004 739.200955,51.4522509 738.721307,51.6609609 C738.206415,51.8845395 737.669497,52.0585563 737.140838,52.2512964 C735.830205,52.7287412 734.50966,53.1797531 733.211142,53.688587 C732.343261,54.028911 731.366895,54.2519389 731.17085,55.4364646 C730.84154,57.4304988 729.535863,59.026387 728.115644,60.3838282 C726.420632,62.0028452 724.654582,63.8217613 722.398421,64.6301684 C721.749162,64.8625579 721.597724,65.4242577 721.476022,65.9909137 C720.860355,68.8588867 720.246891,71.7274104 719.633977,74.5959341 C719.324492,76.22211 719.017209,77.848286 718.660915,79.4645496 C718.486348,80.2580882 718.358038,81.0620899 718.153183,81.8490202 C717.961544,82.5852875 717.756689,83.3540452 717.34037,84 C717.361296,81.9426369 717.721995,77.904456 717.784223,77.1604791 C717.83048,76.6086917 717.866826,76.0547015 717.904272,75.5018127 C717.932357,75.0777844 718.071681,74.4709284 717.907026,74.06287 C717.67794,73.5171401 717.79799,72.8711854 717.732458,72.2494608 C716.737919,72.1877839 716.878344,70.8898169 716.023129,70.6805562 C715.877748,70.6447616 715.720251,70.656326 715.573218,70.6249369 C715.281905,70.5627094 714.994998,70.4828599 714.704786,70.4167776 C714.537929,70.3793309 714.358956,70.3049883 714.201459,70.333624 C713.67225,70.4310954 713.268046,70.3975036 713.356156,69.7873434 C712.347299,69.9200587 711.139645,70.1337249 710.202377,70.5120463 C709.127438,70.9465376 708.086641,71.7048323 707.095957,72.3050801 C705.843697,73.0639255 704.70598,73.7913818 703.495021,74.6146574 C702.283512,75.4379331 701.149098,76.0822358 699.60938,76.9093663 C700.558212,76.0370795 703.073746,73.9362122 703.304484,73.7467762 C705.997338,71.5330182 705.708779,71.792942 708.401083,69.5786334 C709.882429,68.3610665 711.452985,67.2244505 712.780689,65.8554449 C713.883713,64.7177275 715.243357,63.7540269 715.882153,62.2071497 C715.942178,62.06287 716.060025,61.920793 716.060575,61.7770639 C716.064981,60.4972695 716.623377,59.4619797 717.500069,58.5786793 C717.00335,58.1810839 716.436694,58.0913221 715.892616,57.8280942 C715.232894,57.5086963 714.606764,56.9794869 714.036804,56.5240696 C712.344546,55.1710339 711.277867,53.3730439 709.756872,51.9049149 C709.539351,51.6962049 709.227112,51.585517 708.914322,51.406544 C708.974898,51.2523519 709.042632,51.0794365 709.133495,50.8470469 C707.943463,50.8035427 706.953329,50.5089257 706.201092,49.6080033 C706.028177,49.4009453 705.612409,49.4141618 705.335414,49.2726355 C704.944977,49.0727365 704.572714,48.8348401 704.205406,48.5930889 C703.697673,48.2582718 703.188289,47.922904 702.705888,47.5539443 C702.311046,47.2521683 701.958056,46.8958744 701.579735,46.5726217 C701.352301,46.3782295 701.12652,46.1766784 700.873755,46.0208343 C700.256987,45.6408609 699.416089,45.5037401 699.394062,44.5141572 C699.391859,44.4117296 699.057042,44.3203157 698.880272,44.2173374 C698.313616,43.8874765 697.748061,43.5548621 697.182507,43.2227984 C697.231518,43.1346886 697.280529,43.0465789 697.32954,42.9584691"></path>
                </g>
            </g>
        </g>
    </g>
</svg>