<?xml version="1.0" encoding="UTF-8" standalone="no"?>
<svg width="284px" height="240px" viewBox="0 0 284 240" version="1.1" xmlns="http://www.w3.org/2000/svg" xmlns:xlink="http://www.w3.org/1999/xlink">
    <!-- Generator: Sketch 39.1 (31720) - http://www.bohemiancoding.com/sketch -->
    <title>bird</title>
    <desc>Created with Sketch.</desc>
    <defs></defs>
    <g id="desktop" stroke="none" stroke-width="1" fill="none" fill-rule="evenodd">
        <g id="lg/landing" transform="translate(-578.000000, -1320.000000)" fill="#AFAFAF">
            <path d="M604.647699,1354.79235 C606.588867,1354.66844 608.530035,1354.54454 610.93378,1354.3931 C605.275481,1351.13854 598.386398,1350.65119 593.881786,1345.87674 C593.986416,1345.43068 594.0938,1344.98463 594.201184,1344.53582 C602.310036,1345.69226 610.416135,1346.84595 618.524987,1348.00239 C618.637878,1347.80689 618.753522,1347.6114 618.866413,1347.41591 C616.839888,1346.31453 614.890459,1345.03694 612.775825,1344.14483 C606.007893,1341.29778 599.058235,1338.85274 592.436235,1335.71107 C589.790189,1334.45551 587.854527,1331.74063 585.522372,1329.77743 C584.522876,1328.93763 583.314121,1328.35115 582.234776,1327.59947 C580.935157,1326.69634 579.668579,1325.7409 578.806755,1324.02276 C579.50062,1324.02827 580.191731,1324.03378 581.160938,1324.04204 C580.321142,1322.9682 579.566702,1322.0045 578,1320 C580.315635,1320.67459 581.590473,1320.93892 582.782708,1321.40976 C603.496765,1329.59295 624.227342,1337.72658 644.891836,1346.03368 C654.424212,1349.86371 663.747327,1354.22239 673.304484,1357.98632 C678.208343,1359.91648 683.549998,1360.73425 688.467624,1362.63962 C698.201,1366.41733 707.94539,1370.2501 717.362122,1374.73544 C723.849204,1377.82754 729.694736,1381.97972 733.499977,1388.64302 C736.776559,1394.38117 741.92272,1393.95989 745.3177,1388.34289 C752.159974,1377.0263 768.496076,1373.84333 779.000413,1383.17471 C780.680006,1384.66706 783.235189,1385.17094 785.545317,1386.20348 C784.066725,1387.37644 780.98839,1389.8325 779.540085,1390.98068 C779.67225,1391.24776 780.677252,1391.11835 781.712542,1390.85953 C808.302418,1387.35992 834.749117,1383.47483 861.338993,1379.97522 C861.435363,1380.14869 861.534487,1380.3194 861.63361,1380.49286 C860.20458,1380.96645 858.803084,1381.54743 857.343766,1381.89436 C849.43316,1383.76945 841.4785,1385.46556 833.609196,1387.49759 C831.467028,1388.05103 829.669038,1389.87105 827.535129,1390.54564 C824.041026,1391.65527 820.403745,1392.30233 816.546189,1393.21096 C818.068836,1397.6605 814.004773,1397.26125 811.606535,1398.3048 C809.032077,1399.4227 806.347483,1400.29278 803.70419,1401.25648 C797.151026,1403.64371 790.5483,1405.89877 784.055711,1408.44294 C779.716305,1410.14456 774.834473,1411.25969 773.854252,1417.18232 C772.2077,1427.15249 765.679317,1435.13194 758.57822,1441.91914 C750.103162,1450.01423 741.272911,1459.10881 729.992107,1463.15084 C726.745812,1464.31279 725.988619,1467.12129 725.380111,1469.95457 C722.301776,1484.29443 719.234455,1498.63705 716.169887,1512.97967 C714.622459,1521.11055 713.086045,1529.24143 711.304575,1537.32275 C710.431738,1541.29044 709.790189,1545.31045 708.765913,1549.2451 C707.807719,1552.92644 706.783443,1556.77023 704.701849,1560 C704.80648,1549.71318 706.609977,1529.52228 706.921114,1525.8024 C707.152402,1523.04346 707.334129,1520.27351 707.521362,1517.50906 C707.661787,1515.38892 708.358405,1512.35464 707.535129,1510.31435 C706.389702,1507.5857 706.98995,1504.35593 706.662292,1501.2473 C701.689597,1500.93892 702.391721,1494.44908 698.115644,1493.40278 C697.388738,1493.22381 696.601257,1493.28163 695.866092,1493.12468 C694.409527,1492.81355 692.97499,1492.4143 691.523932,1492.08389 C690.689643,1491.89665 689.794778,1491.52494 689.007297,1491.66812 C686.36125,1492.15548 684.340232,1491.98752 684.780781,1488.93672 C679.736497,1489.60029 673.698224,1490.66862 669.011886,1492.56023 C663.63719,1494.73269 658.433206,1498.52416 653.479785,1501.5254 C647.218485,1505.31963 641.529898,1508.95691 635.475104,1513.07329 C629.417558,1517.18967 623.745491,1520.41118 616.0469,1524.54683 C620.791061,1520.1854 633.36873,1509.68106 634.522418,1508.73388 C647.986692,1497.66509 646.543894,1498.96471 660.005415,1487.89317 C667.412143,1481.80533 675.264926,1476.12225 681.903446,1469.27722 C687.418567,1463.58864 694.216787,1458.77013 697.410766,1451.03575 C697.71089,1450.31435 698.300124,1449.60396 698.302877,1448.88532 C698.324905,1442.48635 701.116883,1437.3099 705.500344,1432.8934 C703.01675,1430.90542 700.18347,1430.45661 697.463081,1429.14047 C694.164472,1427.54348 691.033821,1424.89743 688.184021,1422.62035 C679.72273,1415.85517 674.389335,1406.86522 666.784361,1399.52457 C665.696756,1398.48102 664.135561,1397.92758 662.571612,1397.03272 C662.874489,1396.26176 663.213161,1395.39718 663.667477,1394.23523 C657.717314,1394.01771 652.766647,1392.54463 649.005461,1388.04002 C648.140884,1387.00473 646.062044,1387.07081 644.677069,1386.36318 C642.724886,1385.36368 640.863568,1384.1742 639.02703,1382.96544 C636.488367,1381.29136 633.941444,1379.61452 631.529439,1377.76972 C629.555229,1376.26084 627.79028,1374.47937 625.898674,1372.86311 C624.761507,1371.89115 623.632601,1370.88339 622.368776,1370.10417 C619.284934,1368.2043 615.080446,1367.5187 614.970309,1362.57079 C614.959295,1362.05865 613.285209,1361.60158 612.401358,1361.08669 C609.568079,1359.43738 606.740306,1357.77431 603.912533,1356.11399 C604.157588,1355.67344 604.402643,1355.23289 604.647699,1354.79235" id="bird"></path>
        </g>
    </g>
</svg>