<?xml version="1.0" encoding="UTF-8" standalone="no"?>
<svg width="48px" height="48px" viewBox="0 0 48 48" version="1.1" xmlns="http://www.w3.org/2000/svg" xmlns:xlink="http://www.w3.org/1999/xlink">
    <!-- Generator: Sketch 39.1 (31720) - http://www.bohemiancoding.com/sketch -->
    <title>instagram</title>
    <desc>Created with Sketch.</desc>
    <defs></defs>
    <g id="desktop" stroke="none" stroke-width="1" fill="none" fill-rule="evenodd">
        <g id="lg/landing" transform="translate(-96.000000, -896.000000)" fill="#AFAFAF">
            <g id="section/instagram" transform="translate(0.000000, 800.000000)">
                <path d="M120.000048,96 C113.481991,96 112.664686,96.0276278 110.104926,96.1444265 C107.550311,96.2609395 105.80576,96.6666865 104.279088,97.2599213 C102.700876,97.8732576 101.362454,98.6938975 100.028223,100.028128 C98.6939927,101.362454 97.8733529,102.700876 97.2600166,104.279088 C96.6666865,105.805665 96.2610347,107.550311 96.1444265,110.104831 C96.0276278,112.664686 96,113.481991 96,120.000048 C96,126.518009 96.0276278,127.335314 96.1444265,129.895169 C96.2610347,132.449689 96.6666865,134.194335 97.2600166,135.720912 C97.8733529,137.299124 98.6939927,138.637546 100.028223,139.971872 C101.362454,141.306103 102.700876,142.126742 104.279088,142.740079 C105.80576,143.333313 107.550311,143.739061 110.104926,143.855573 C112.664686,143.972468 113.481991,144 120.000048,144 C126.518104,144 127.335314,143.972468 129.895169,143.855573 C132.449785,143.739061 134.194335,143.333313 135.721007,142.740079 C137.299219,142.126742 138.637642,141.306103 139.971872,139.971872 C141.306103,138.637546 142.126742,137.299124 142.740079,135.720912 C143.333409,134.194335 143.739061,132.449689 143.855669,129.895169 C143.972468,127.335314 144,126.518009 144,120.000048 C144,113.481991 143.972468,112.664686 143.855669,110.104831 C143.739061,107.550311 143.333409,105.805665 142.740079,104.279088 C142.126742,102.700876 141.306103,101.362454 139.971872,100.028128 C138.637642,98.6938975 137.299219,97.8732576 135.721007,97.2599213 C134.194335,96.6666865 132.449785,96.2609395 129.895169,96.1444265 C127.335314,96.0276278 126.518104,96 120.000048,96 M120.000048,100.324317 C126.408355,100.324317 127.167356,100.348801 129.69806,100.464266 C132.038036,100.570966 133.308818,100.961946 134.154608,101.290621 C135.274771,101.725997 136.074357,102.246066 136.914146,103.08595 C137.753934,103.925738 138.274098,104.725229 138.709379,105.845487 C139.038054,106.691182 139.429034,107.961964 139.53583,110.30194 C139.651295,112.832644 139.675683,113.59174 139.675683,120.000048 C139.675683,126.40826 139.651295,127.167356 139.53583,129.69806 C139.429034,132.038036 139.038054,133.308818 138.709379,134.154513 C138.274098,135.274771 137.753934,136.074262 136.914146,136.91405 C136.074357,137.753934 135.274771,138.274003 134.154608,138.709379 C133.308818,139.038054 132.038036,139.429034 129.69806,139.535734 C127.167737,139.651199 126.408736,139.675683 120.000048,139.675683 C113.591359,139.675683 112.832358,139.651199 110.302036,139.535734 C107.962059,139.429034 106.691182,139.038054 105.845487,138.709379 C104.725324,138.274003 103.925738,137.753934 103.08595,136.91405 C102.246161,136.074262 101.725997,135.274771 101.290621,134.154513 C100.962042,133.308818 100.571061,132.038036 100.464266,129.69806 C100.348801,127.167356 100.324412,126.40826 100.324412,120.000048 C100.324412,113.59174 100.348801,112.832644 100.464266,110.30194 C100.571061,107.961964 100.962042,106.691182 101.290621,105.845487 C101.725997,104.725229 102.246161,103.925738 103.08595,103.08595 C103.925738,102.246066 104.725324,101.725997 105.845487,101.290621 C106.691182,100.961946 107.962059,100.570966 110.30194,100.464266 C112.832739,100.348801 113.59174,100.324317 120.000048,100.324317 Z M120.000048,107.675683 C113.193519,107.675683 107.675683,113.193424 107.675683,120.000048 C107.675683,126.806576 113.193519,132.324317 120.000048,132.324317 C126.806576,132.324317 132.324412,126.806576 132.324412,120.000048 C132.324412,113.193424 126.806576,107.675683 120.000048,107.675683 Z M120.000048,128 C115.581797,128 112,124.418299 112,120.000048 C112,115.581701 115.581797,112 120.000048,112 C124.418299,112 128,115.581701 128,120.000048 C128,124.418299 124.418299,128 120.000048,128 Z M135.691312,107.188739 C135.691312,108.779336 134.401858,110.068695 132.811356,110.068695 C131.220759,110.068695 129.931305,108.779336 129.931305,107.188739 C129.931305,105.598142 131.220759,104.308783 132.811356,104.308783 C134.401858,104.308783 135.691312,105.598142 135.691312,107.188739 Z" id="instagram"></path>
            </g>
        </g>
    </g>
</svg>