<?xml version="1.0" encoding="UTF-8" standalone="no"?>
<svg width="376px" height="279px" viewBox="0 0 376 279" version="1.1" xmlns="http://www.w3.org/2000/svg" xmlns:xlink="http://www.w3.org/1999/xlink">
    <!-- Generator: Sketch 39.1 (31720) - http://www.bohemiancoding.com/sketch -->
    <title>logo</title>
    <desc>Created with Sketch.</desc>
    <defs>
        <polygon id="path-1" points="3.97351582e-20 0.0983036649 3.97351582e-20 61.7320209 375.709424 61.7320209 375.709424 0.0983036649 0 0.0983036649"></polygon>
    </defs>
    <g id="desktop" stroke="none" stroke-width="1" fill="none" fill-rule="evenodd">
        <g id="lg/landing" transform="translate(-292.000000, -230.000000)">
            <g id="section/hero" transform="translate(0.000000, 80.000000)">
                <g id="logo/tagline" transform="translate(292.000000, 150.000000)">
                    <g id="logo">
                        <g id="circle" transform="translate(50.842932, 0.021517)" fill="#222222">
                            <path d="M273.872335,169.102555 C272.824168,169.910304 271.994429,171.556586 270.726366,171.173969 C269.927414,170.932084 269.52867,169.926429 268.715058,169.738785 C268.020188,169.578995 267.364901,170.083288 266.829822,170.553864 C264.67778,172.449361 262.524272,174.344859 260.37223,176.23889 C259.388565,180.459414 258.136628,181.718681 256.568042,185.909885 C254.329508,191.84266 251.595476,197.710932 248.323435,203.319728 C245.016209,208.906534 241.238408,214.252921 237.091183,219.248942 C228.73223,229.192607 218.897047,237.687895 208.592754,244.146953 C206.065424,245.837215 203.412021,247.24601 200.868565,248.733969 C198.228356,250.050408 195.69956,251.470932 193.084272,252.589466 C187.948984,255.028838 182.809298,256.884754 177.920293,258.553026 C173.163225,259.947162 167.736209,261.725382 161.886995,263.179623 C156.042178,264.572293 149.822073,265.923916 143.701654,266.434073 C131.482806,267.735853 119.870869,266.227372 114.103749,262.637215 C114.103749,262.637215 113.533487,262.503812 112.538094,262.269257 C111.53977,262.053759 110.120712,261.706325 108.443644,261.194702 C105.07045,260.259414 100.61244,258.855016 96.2892984,257.110513 C95.2074136,256.679518 94.1240628,256.24999 93.0597696,255.826325 C92.016,255.352817 90.988356,254.886639 89.9944293,254.43512 C87.9904503,253.573131 86.182911,252.633445 84.6333822,251.828628 C83.0765236,251.042869 81.7879372,250.377319 80.9186178,249.846639 C80.0361047,249.339414 79.5332775,249.050618 79.5332775,249.050618 L80.6342199,248.666534 C72.7487749,244.378576 65.0451099,239.265277 57.8442723,233.367686 C50.6771518,227.433445 44.0480419,220.698785 38.2237487,213.382136 C26.4769424,198.803079 19.6719162,187.421298 16.0172565,170.801613 C15.998199,170.72245 15.9835393,170.652084 15.9659476,170.572921 C14.3958953,170.074492 12.7979895,169.951351 11.2865759,170.600775 C9.64615707,171.30444 8.49097382,172.785068 7.08364398,173.884545 C6.30374869,174.494387 5.3933822,174.919518 4.44196859,175.227372 C6.14249215,182.473654 7.29620942,183.907372 10.2164188,191.089152 C12.7027016,197.077634 15.6742199,202.966429 19.0166283,208.751141 C22.435267,214.491874 26.3039581,220.068419 30.5669948,225.445592 C47.6953717,246.851665 72.2708691,264.251246 100.745843,272.749466 C129.140188,281.274073 161.15401,280.514702 189.763853,269.553654 C204.018932,264.035749 217.398827,256.186953 229.037152,246.35177 C240.61977,236.479937 250.661654,224.847476 258.261236,211.920565 L259.151079,215.943183 C267.206576,201.695435 273.192126,188.092712 275.773696,171.307372 C275.923225,170.355958 276.024377,169.404545 276.151916,168.453131 C275.323644,168.428209 274.546681,168.583602 273.872335,169.102555 M173.070869,7.78590576 C179.232335,9.29438743 185.481759,11.4948063 191.432126,13.9107225 C197.382492,16.3442304 202.897466,19.3142827 207.692649,22.2198325 L206.497885,22.5438115 C202.274429,20.4855916 198.987728,19.5517696 193.894953,16.8323979 L191.914429,17.622555 C195.331602,21.8753298 204.090764,25.7733403 212.517152,30.4512461 C220.972859,34.9942827 229.066471,40.2717696 231.694953,43.3283141 C237.209927,49.8064293 234.603435,48.4093613 231.521969,46.1239162 C228.351079,43.9088377 224.47066,40.9651728 227.465634,43.5452775 C223.78312,40.8229738 222.356733,40.4945969 222.616209,41.2525026 C222.727623,41.652712 223.224586,42.3681047 223.985424,43.2989948 C224.725738,44.2548063 225.690346,45.4730262 226.811812,46.7982618 C227.956733,48.0985759 229.133906,49.6393089 230.35799,51.1888377 C231.609927,52.7119791 232.794429,54.3523979 233.896838,55.9239162 C235.032963,57.4661152 236.038618,58.9789948 236.834639,60.3438115 C237.646785,61.6925026 238.322597,62.8315602 238.715476,63.6964817 C241.137257,68.3186806 244.491393,74.0315602 247.820607,80.6958534 C251.155686,87.3484188 254.440921,94.9597277 257.015162,103.032817 C259.428147,110.541508 262.08155,123.12978 263.094534,130.799728 C264.079665,129.975853 264.748147,129.091874 265.762597,128.292921 C266.299141,127.870723 267.161131,128.713654 267.996733,128.568524 C268.635895,128.45711 269.286785,129.582974 269.631288,129.222346 C270.974115,127.81355 272.535372,128.278262 273.736,127.924963 C272.934115,124.425696 270.74689,111.701089 269.584377,107.836796 C266.809298,98.2772147 262.802806,88.3965864 259.290346,81.0652775 L260.647832,82.1911414 C263.226471,87.1681047 264.128042,89.7379476 264.66312,90.654178 C265.136628,91.5967958 264.978304,91.0074764 264.705634,90.0091518 C264.163225,88.0271623 263.135581,84.3578429 265.850555,88.2030785 C265.850555,88.2030785 266.318199,89.0826597 266.787309,89.9607749 C267.27401,90.8330262 267.687414,91.7389948 267.687414,91.7389948 C267.687414,91.7389948 267.586262,91.1555393 267.449927,90.5838115 C267.31066,90.0135497 267.171393,89.441822 267.171393,89.441822 L265.289089,85.9161675 C265.856419,86.1595183 266.227309,85.6171099 267.83401,89.0445445 L265.841759,84.0881047 C265.07066,81.2851728 264.576628,79.1096754 264.311288,77.4370052 C263.981445,75.7965864 263.905215,74.6428691 264.029822,73.8439162 C264.276105,72.2460105 265.324272,72.0715602 266.680293,72.1932356 C264.849298,69.6145969 264.822911,73.3484188 258.393173,61.8259058 L259.973487,62.8579476 C259.973487,62.8579476 259.398827,62.1484188 258.538304,61.0855916 C257.661654,60.0374241 256.576838,58.5831832 255.335162,57.2506178 C254.127204,55.8989948 252.919246,54.5488377 252.011812,53.5358534 C251.089717,52.5433927 250.440293,51.9100942 250.440293,51.9100942 C250.440293,51.9100942 249.610555,50.5144921 248.779351,49.1188901 C247.967204,47.7027644 247.053906,46.3555393 247.053906,46.3555393 C243.270241,42.7990995 240.618304,40.7760628 237.009089,36.9293613 L234.810136,36.9572147 C226.455581,28.7844398 215.402178,21.2684188 203.549822,15.4162723 C197.600921,12.5224503 191.464377,10.0361675 185.393801,7.88559162 C179.279246,5.87721466 173.290764,3.9993089 167.519246,2.64328796 C166.176419,2.71951832 164.42312,2.51574869 162.316524,2.25773822 C160.214325,1.97040838 157.780817,1.47637696 155.067309,1.16265969 C149.669613,0.305068063 143.160712,-0.0511623037 136.587309,0.57773822 L142.209298,2.2166911 C149.188775,3.46569634 160.796314,4.4801466 173.070869,7.78590576 M24.7031204,73.8263246 C25.0388272,73.1622408 24.396733,74.1503037 23.8176754,74.9199372 C24.1094031,74.6912461 24.395267,74.4347016 24.7031204,73.8263246 M23.6329634,75.163288 C23.6930681,75.0870576 23.7561047,75.0034974 23.8176754,74.9199372 C23.5244817,75.1530262 23.2210262,75.3743874 22.8838534,75.8816126 C23.1726492,75.6426597 23.4394555,75.4066387 23.6329634,75.163288 M13.0516021,120.423602 C13.4547435,120.303393 13.5969424,120.128942 13.9956859,120.255016 C14.3196649,118.74067 14.9177801,116.936063 15.433801,114.858785 C15.8603979,113.148 16.5039581,111.347791 17.0082513,109.462555 C17.490555,107.665277 18.1311832,105.872398 18.6442723,104.080984 C19.1837487,102.20601 19.1749529,100.213759 19.7056335,98.5264293 C20.3403979,96.4989948 21.4178848,94.8336545 21.969089,93.3720838 C22.5730681,91.7433927 23.2049005,90.1337592 23.8763141,88.5299895 C24.5491937,86.9262199 24.9933822,85.2256963 25.7307644,83.654178 C26.4696126,82.0767958 27.4049005,80.6020314 28.2053194,79.0642304 C29.0101361,77.5176335 29.9175707,76.0399372 30.7795602,74.5387853 C31.6503455,73.0244398 32.5944293,71.5760628 33.5209215,70.1144921 C34.4562094,68.6382618 34.9751623,66.8966911 35.9632251,65.4805654 C36.9659476,64.0453822 37.927623,62.5779476 38.9816545,61.2116649 C40.0518115,59.8248586 41.4796649,58.7371099 42.5996649,57.429466 C43.7401885,56.0954346 44.6725445,54.6910366 45.8599791,53.4493613 C45.2266806,53.0110366 47.5267853,49.3475812 43.4689843,53.0814031 C42.2932775,54.487267 41.0296126,55.8799372 39.842178,57.3107225 C38.6518115,58.7459058 37.5200838,60.229466 36.3561047,61.6411937 C35.1481466,63.1056963 33.8434346,64.4470576 32.7073089,65.8353298 C31.4729634,67.3408796 30.278199,68.7760628 29.1831204,70.123288 C27.8065759,71.8399372 26.9489843,73.7222408 25.842178,75.0049634 C23.7282513,77.4560628 22.1640628,78.8238115 21.4677277,78.6537592 C21.5322304,77.1951204 21.9910785,77.3314555 22.7504503,76.0839162 C22.7958953,76.0047539 22.8398743,75.9490471 22.8838534,75.8816126 C22.2534869,76.4034974 21.4867853,76.9444398 20.9209215,77.6539686 C20.0897173,78.6918743 19.6425969,80.0229738 19.0811309,80.8439162 C18.4991414,81.6560628 18.0769424,81.2118743 17.723644,81.9653822 C17.0053194,83.5017173 17.6049005,83.7421361 16.9979895,85.3268482 C16.4673089,86.9364817 16.1667853,86.7942827 15.3282513,88.2675812 C14.1657382,89.6382618 13.5734869,90.2217173 13.2231204,90.2055916 C12.449089,91.8005654 11.7146387,93.5362723 10.956733,95.2573194 C10.2354764,96.8992042 9.49662827,98.586534 8.80029319,100.314911 C8.12448168,101.991979 7.81369634,103.839099 7.16867016,105.571874 C6.53390576,107.279728 5.73935079,108.943602 5.14416754,110.682241 C4.55045026,112.417948 4.29097382,114.262136 3.74270157,116.005173 C3.19003141,117.765801 2.42479581,119.448733 1.92783246,121.193236 C1.41767539,122.980251 1.21976963,124.808314 0.778513089,126.554283 C0.744795812,127.046848 0.199455497,127.738785 0.16573822,128.238681 C0.947099476,128.254806 1.66542408,127.300461 2.33390576,126.884126 C4.52113089,125.517843 6.37558115,124.973969 7.97348691,124.079728 C9.59631414,123.170827 11.2909738,122.364545 13.0516021,120.423602 M135.860188,8.10108901 C135.71066,8.10841885 135.562597,8.11574869 135.411602,8.12161257 C135.443853,8.1245445 135.465843,8.12747644 135.49956,8.13040838 C135.251812,8.23742408 135.465843,8.15972775 135.860188,8.10108901 M80.817466,26.5942827 C80.4069948,26.8347016 80.1123351,26.9842304 80.4817592,26.7936545 C80.5902408,26.7276859 80.7045864,26.6617173 80.817466,26.5942827 M135.860188,8.10108901 C136.141654,8.08936126 136.428984,8.07176963 136.706052,8.06297382 C136.401131,8.03951832 136.097675,8.06737173 135.860188,8.10108901 M86.1491937,24.902555 C85.0482513,25.8774241 84.9822827,25.7748063 83.7288796,26.5429738 C82.4725445,27.3023455 82.0151623,26.8537592 81.0681466,27.979623 C80.8423874,28.2478953 81.518199,27.8784712 81.8319162,27.7201466 C83.8270995,26.6030785 85.6874136,26.0313508 87.2149529,25.2661152 C89.1808168,24.2809843 90.847623,23.501089 92.577466,22.8531309 C94.3146387,22.2007749 96.0166283,21.445801 98.1246911,20.8564817 C99.7695079,20.3961675 101.675267,20.1190995 103.877152,19.5459058 C104.007623,19.5136545 103.982702,19.4256963 104.113173,19.3905131 C104.311079,19.3362723 104.283225,19.2292565 104.484063,19.1838115 C104.942911,19.0518743 105.447204,19.0504084 105.913382,18.9565864 C106.77244,18.3526073 108.329298,18.0271623 110.356733,17.574178 C111.702492,17.2721885 113.206576,16.7253822 114.945215,16.4922932 C114.907099,16.2943874 114.470241,16.034911 115.974325,15.6303037 C118.410764,15.3678953 119.583539,15.3517696 120.263749,15.2198325 C121.527414,14.9764817 121.282597,15.146534 124.507728,14.4194136 C122.953801,14.586534 120.697675,14.8650681 119.900188,14.7624503 C119.373906,14.2112461 120.722597,14.3827644 121.624168,14.2303037 C122.525738,14.0851728 123.699979,13.5970052 124.915267,13.4826597 C127.338513,13.1982618 127.595058,14.2728168 129.764691,13.1572147 C128.399874,12.8977382 127.405948,12.6895707 129.021445,12.2145969 C127.952754,11.5050681 131.060607,10.1637068 132.278827,9.32370681 C130.48155,9.29878534 128.785424,9.59197906 128.089089,9.58171728 C128.292859,9.22255497 130.100398,8.36056545 132.164482,8.20810471 C132.224586,8.24328796 132.287623,8.27993717 132.340398,8.30485864 C133.324063,8.23449215 134.370764,8.17292147 135.411602,8.12161257 C133.991079,7.99114136 133.952963,7.91197906 132.463539,7.97941361 C130.941864,8.04391623 130.94333,7.87532984 129.420188,7.90904712 C129.217885,7.85187435 129.417257,8.12894241 129.779351,8.03658639 C129.000921,8.20517277 128.657885,7.71700524 128.172649,8.3488377 C127.800293,8.83114136 128.871916,8.1245445 129.477361,8.19784293 C129.90689,8.30925654 129.027309,8.52035602 128.232754,8.69773822 C126.63045,8.90297382 126.214115,8.70067016 125.409298,8.67428272 C124.598618,8.74464921 124.683644,9.3984712 123.887623,9.56559162 C123.08867,9.71218848 122.902492,9.17857592 122.162178,9.52161257 C121.036314,10.1739686 130.716105,9.25920419 125.576419,10.3117696 C124.777466,10.436377 124.729089,9.93794764 123.924272,10.0259058 C121.561131,10.4642304 118.444482,11.509466 116.925738,12.1310366 C114.436524,11.9067435 110.333277,13.7905131 109.741026,12.9739686 C107.637361,13.3331309 105.749194,13.330199 104.079455,13.7509319 C102.104796,14.2478953 100.481969,15.2579476 98.7418639,15.8633927 C97.0120209,16.4644398 95.1355812,16.688733 93.2371518,17.4217173 C91.6289843,18.041822 89.9651099,18.9448586 87.9713927,19.674911 C86.8044817,20.9459058 87.5755812,22.3972147 84.4765236,24.9685236 C83.7318115,25.2470576 82.4622827,25.5255916 82.7466806,25.2016126 C82.0679372,25.370199 82.2013403,25.6062199 81.657466,26.0504084 C81.4727539,26.1940733 81.2118115,26.3597277 80.9684607,26.5063246 C82.2394555,25.7806702 83.758199,25.1429738 84.4853194,25.0271623 C80.8072042,27.325801 86.3295079,24.4026597 86.1491937,24.902555" id="Fill-1"></path>
                        </g>
                        <path d="M257.392622,194.774591 L257.392622,189.58434 L254.994571,189.58434 L254.994571,194.774591 L253.388642,194.774591 L253.388642,197.080802 L254.994571,197.080802 L254.994571,210.289217 L257.392622,210.289217 L257.392622,197.080802 L259.942465,197.080802 L259.942465,194.774591 L257.392622,194.774591 Z M249.016025,207.656463 C247.232793,208.540426 245.142152,208.523844 243.526018,207.504672 C242.685425,206.972764 242.01448,206.248246 241.53487,205.35663 C241.053984,204.462463 240.811628,203.500691 240.811628,202.501929 C240.811628,201.499339 241.05526,200.545221 241.539972,199.667636 C242.024685,198.7875 242.696905,198.075738 243.540049,197.551483 C244.387021,197.022126 245.300321,196.765739 246.332248,196.765739 C248.180534,196.765739 249.737991,197.483879 251.092635,198.962252 L251.945984,199.897237 L251.945984,196.514454 L251.773784,196.366489 C250.286482,195.10241 248.477739,194.460803 246.394751,194.460803 C244.913827,194.460803 243.547703,194.820511 242.332095,195.530997 C241.119038,196.237657 240.150888,197.218562 239.456984,198.446926 C238.764356,199.670187 238.413577,201.035035 238.413577,202.501929 C238.413577,203.982853 238.759253,205.355354 239.440402,206.583718 C240.121551,207.814633 241.080771,208.801915 242.292552,209.521331 C243.503058,210.239471 244.874284,210.604281 246.362862,210.604281 C248.45733,210.604281 250.345158,209.886141 251.97022,208.47027 L252.139869,208.323581 L252.139869,204.810691 L251.268662,205.866854 C250.643638,206.625811 249.885956,207.2266 249.016025,207.656463 L249.016025,207.656463 Z M224.845454,200.842426 C224.975561,200.225055 225.226846,199.638298 225.599309,199.092359 C226.082746,198.383148 226.715423,197.811697 227.479483,197.392038 C229.010154,196.555272 230.887778,196.55272 232.343191,197.394589 C233.074086,197.815524 233.677426,198.389526 234.140454,199.100012 C234.496335,199.645951 234.748895,200.230158 234.893033,200.842426 L224.845454,200.842426 Z M233.899373,195.578193 C232.76285,194.837093 231.422237,194.460803 229.91325,194.460803 C228.447633,194.460803 227.122327,194.831991 225.974323,195.562886 C224.832698,196.291231 223.93598,197.283616 223.30968,198.511979 C222.687207,199.731414 222.370869,201.073302 222.370869,202.501929 C222.370869,203.947137 222.682105,205.303057 223.295649,206.530145 C223.91302,207.768712 224.805911,208.7662 225.950088,209.49582 C227.098091,210.230542 228.432326,210.604281 229.91325,210.604281 C231.424788,210.604281 232.798565,210.235644 233.99504,209.512402 C235.19279,208.787884 236.154561,207.743201 236.853568,206.407691 L237.071689,205.990583 L235.032069,204.80814 L234.792264,205.260963 C234.306276,206.180641 233.642985,206.928119 232.821525,207.481712 C232.003892,208.032753 231.111,208.300621 230.098206,208.300621 C229.093066,208.300621 228.174663,208.069744 227.365959,207.613094 C226.567459,207.164097 225.928403,206.507184 225.469202,205.660213 C225.071228,204.931869 224.841627,204.088724 224.784227,203.147361 L237.385476,203.147361 L237.385476,202.656271 C237.385476,201.185551 237.088271,199.814325 236.500238,198.577033 C235.905827,197.324434 235.030794,196.315466 233.899373,195.578193 L233.899373,195.578193 Z M216.906373,189.177437 C216.56835,189.530767 216.396149,189.94915 216.396149,190.421107 C216.396149,190.916024 216.573452,191.340786 216.917853,191.68136 C217.257152,192.02321 217.693393,192.203064 218.179381,192.203064 C218.66792,192.203064 219.091406,192.032139 219.438358,191.69284 C219.78531,191.35099 219.961337,190.922402 219.961337,190.421107 C219.961337,189.936395 219.789137,189.51546 219.448563,189.167233 C218.759761,188.465675 217.591348,188.465675 216.906373,189.177437 L216.906373,189.177437 Z M216.965049,218.783166 L219.3631,218.783166 L219.3631,194.774591 L216.965049,194.774591 L216.965049,218.783166 Z M211.445704,205.467604 C210.93548,206.341362 210.224994,207.040368 209.334654,207.541663 C207.596066,208.521292 205.320469,208.587621 203.583157,207.516152 C202.733635,206.993172 202.055037,206.282686 201.566498,205.403826 C201.077959,204.526241 200.8305,203.570847 200.8305,202.563155 C200.8305,201.540157 201.076683,200.569456 201.56012,199.680392 C202.044833,198.791327 202.722155,198.075738 203.570402,197.551483 C204.412271,197.02978 205.35746,196.765739 206.381734,196.765739 C207.467235,196.765739 208.467273,197.019575 209.34996,197.522145 C210.228821,198.022165 210.934205,198.723722 211.445704,199.603858 C211.953377,200.482718 212.21104,201.47893 212.21104,202.563155 C212.21104,203.618043 211.953377,204.593846 211.445704,205.467604 L211.445704,205.467604 Z M212.25696,196.781046 C211.523513,196.055252 210.649755,195.481251 209.659921,195.073072 C208.671363,194.667444 207.598618,194.460803 206.47485,194.460803 C205.014335,194.460803 203.650762,194.82944 202.422398,195.553958 C201.19531,196.281026 200.214405,197.274687 199.505194,198.509428 C198.794708,199.746721 198.432449,201.111569 198.432449,202.563155 C198.432449,203.995608 198.795984,205.343874 199.514123,206.573514 C200.230988,207.799326 201.214444,208.786609 202.438981,209.511126 C203.666069,210.235644 205.023264,210.604281 206.47485,210.604281 C207.954499,210.604281 209.333378,210.2484 210.575773,209.545566 C211.818167,208.841458 212.810553,207.861828 213.526141,206.636016 C214.244281,205.408928 214.607815,204.028773 214.607815,202.532542 C214.607815,201.404948 214.397348,200.334753 213.985343,199.355124 C213.573337,198.371668 212.991682,197.506839 212.25696,196.781046 L212.25696,196.781046 Z M197.956666,194.848573 C197.378837,194.59091 196.794631,194.460803 196.221905,194.460803 C195.105791,194.460803 194.196317,194.833267 193.502413,195.569264 L193.502413,194.774591 L191.099259,194.774591 L191.099259,210.289217 L193.502413,210.289217 L193.502413,201.649855 C193.502413,200.699563 193.561089,199.848765 193.67844,199.119146 C193.783036,198.455855 194.030494,197.878026 194.414438,197.400967 C194.758839,196.973655 195.279267,196.765739 195.998682,196.765739 C196.241038,196.765739 196.499977,196.839721 196.76912,196.987686 L197.183677,197.216011 L198.464338,195.073072 L197.956666,194.848573 Z M185.596497,205.48291 C185.165358,206.334984 184.547987,207.026337 183.758416,207.537836 C182.161416,208.572315 179.870512,208.509812 178.307952,207.596512 C177.510727,207.129657 176.885703,206.476571 176.449462,205.657662 C176.009394,204.828549 175.786171,203.883359 175.786171,202.84633 C175.786171,201.741695 175.996638,200.704666 176.416297,199.76713 C176.823201,198.848727 177.430367,198.108903 178.218662,197.569341 C178.998029,197.034882 179.941943,196.765739 181.024893,196.765739 C182.074678,196.765739 182.970121,197.028504 183.764794,197.569341 C184.559467,198.111454 185.178113,198.841074 185.602875,199.736516 C186.035289,200.647265 186.25341,201.639651 186.25341,202.685609 C186.25341,203.677994 186.032738,204.619357 185.596497,205.48291 L185.596497,205.48291 Z M186.601638,196.872886 C185.925591,196.108826 185.100304,195.509313 184.152564,195.089654 C182.239225,194.245234 179.725098,194.201865 177.563025,195.301397 C176.913765,195.631767 176.353795,196.036119 175.88694,196.511903 L175.88694,194.774591 L173.482511,194.774591 L173.482511,218.783166 L175.88694,218.783166 L175.88694,208.58507 C176.379306,209.077436 176.95841,209.486891 177.615323,209.812158 C178.679139,210.337689 179.834796,210.604281 181.054231,210.604281 C182.555564,210.604281 183.901279,210.254777 185.054384,209.567251 C186.211316,208.875898 187.111861,207.911575 187.731783,206.699794 C188.345327,205.499493 188.657839,204.139747 188.657839,202.656271 C188.657839,201.53633 188.483087,200.472514 188.137411,199.495435 C187.790459,198.513255 187.272582,197.629292 186.601638,196.872886 L186.601638,196.872886 Z M150.005844,200.842426 C150.1334,200.226331 150.384685,199.639574 150.758424,199.092359 C151.241861,198.383148 151.874538,197.811697 152.638598,197.392038 C154.159065,196.560374 156.057097,196.555272 157.502305,197.394589 C158.23065,197.814248 158.833989,198.38825 159.299568,199.100012 C159.655449,199.645951 159.90801,200.230158 160.052148,200.842426 L150.005844,200.842426 Z M159.058488,195.578193 C157.92324,194.837093 156.581352,194.460803 155.072365,194.460803 C153.606748,194.460803 152.281442,194.831991 151.133438,195.562886 C149.991813,196.291231 149.095095,197.283616 148.468795,198.511979 C147.846322,199.731414 147.529984,201.073302 147.529984,202.501929 C147.529984,203.947137 147.84122,205.303057 148.454764,206.530145 C149.072135,207.768712 149.965026,208.7662 151.109203,209.49582 C152.257206,210.230542 153.591441,210.604281 155.072365,210.604281 C156.583903,210.604281 157.95768,210.235644 159.154155,209.512402 C160.35318,208.786609 161.313676,207.741926 162.013958,206.407691 L162.230803,205.990583 L160.191184,204.80814 L159.951379,205.259688 C159.464116,206.181917 158.800825,206.929395 157.98064,207.481712 C157.163007,208.032753 156.271391,208.300621 155.256046,208.300621 C154.252181,208.300621 153.333778,208.069744 152.525073,207.613094 C151.726573,207.164097 151.087518,206.507184 150.628317,205.660213 C150.230342,204.931869 150.002017,204.088724 149.943342,203.147361 L162.545867,203.147361 L162.545867,202.656271 C162.545867,201.185551 162.247386,199.814325 161.659353,198.577033 C161.064942,197.324434 160.189909,196.315466 159.058488,195.578193 L159.058488,195.578193 Z M142.684134,210.289217 L145.088563,210.289217 L145.088563,183.355785 L142.684134,183.355785 L142.684134,210.289217 Z M136.52701,205.334946 C136.122658,206.239317 135.518043,206.968937 134.729747,207.500845 C133.945278,208.031478 132.998813,208.300621 131.918415,208.300621 C130.886487,208.300621 129.968084,208.035304 129.186167,207.51105 C128.394044,206.980417 127.774123,206.259726 127.341708,205.366835 C126.902916,204.461187 126.680968,203.47518 126.680968,202.440702 C126.680968,201.723837 126.8098,201.012075 127.063636,200.321998 C127.318748,199.633196 127.683558,199.011999 128.147862,198.476264 C128.605787,197.944356 129.155553,197.52087 129.780577,197.218562 C130.397948,196.91753 131.085474,196.765739 131.826574,196.765739 C132.628901,196.765739 133.36745,196.904775 134.016709,197.182847 C134.663418,197.458367 135.227215,197.849964 135.691519,198.344881 C136.155822,198.842349 136.518081,199.434209 136.768091,200.105153 C137.020651,200.781199 137.146932,201.512095 137.146932,202.278706 C137.146932,203.38334 136.939016,204.411441 136.52701,205.334946 L136.52701,205.334946 Z M137.055091,196.494045 C136.548694,195.99275 135.959386,195.575642 135.29482,195.247823 C133.237343,194.233754 130.705358,194.240132 128.77161,195.056489 C127.828972,195.453188 127.011338,196.023363 126.346772,196.747881 C125.682206,197.467296 125.16688,198.327023 124.81355,199.300275 C124.461495,200.268424 124.282917,201.324587 124.282917,202.440702 C124.282917,203.917799 124.599256,205.295403 125.220453,206.533971 C125.846753,207.78657 126.753675,208.787884 127.918261,209.512402 C129.084122,210.23692 130.441317,210.604281 131.949028,210.604281 C133.127645,210.604281 134.283301,210.319831 135.385384,209.75986 C136.033369,209.429491 136.592063,209.028965 137.055091,208.558284 L137.055091,210.289217 L139.451867,210.289217 L139.451867,194.774591 L137.055091,194.774591 L137.055091,196.494045 Z" id="ale-project" fill="#4B4B4B"></path>
                        <g id="birds-fly-south" transform="translate(0.000000, 119.764973)">
                            <mask id="mask-2" fill="white">
                                <use xlink:href="#path-1"></use>
                            </mask>
                            <g id="Clip-7"></g>
                            <path d="M375.499791,43.1127539 C375.499791,43.0247958 375.17288,42.9646911 375.084921,42.5175707 C374.22,42.1027016 374.159895,42.1906597 373.26712,41.9824921 L372.701257,41.8930681 C371.89644,41.3873089 371.686806,41.4166283 371.629634,40.6103455 L371.480105,39.2704503 L371.480105,36.1142199 C371.359895,35.9632251 371.002199,35.1906597 370.971414,34.9223874 L370.914241,33.7906597 C370.971414,33.6425969 371.122408,32.3598743 371.122408,32.2411309 C371.153194,32.2118115 371.32911,31.5257382 371.32911,31.3161047 L370.914241,30.5127539 L370.914241,26.5810262 C371.122408,26.1353717 371.122408,25.8670995 371.122408,25.1824921 L370.764712,24.1094031 L370.764712,22.0541152 C370.764712,21.784377 370.585864,21.0118115 370.556545,20.9810262 C369.989215,19.6704503 368.381047,18.5094031 367.309424,18.1209215 C367.249319,17.9713927 366.68199,17.8834346 366.475288,17.8233298 C365.847853,17.5565236 365.402199,17.0492984 364.719058,17.0492984 C363.288272,17.0492984 361.888272,17.675267 360.548377,17.8233298 L358.431518,17.8233298 L357.865654,18.1209215 C357.150262,18.5094031 356.942094,19.3728586 355.958429,19.3728586 C355.243037,18.8964188 354.97623,18.2997696 354.62,17.3175707 C354.202199,16.1272042 354.52911,14.9925445 354.262304,13.9194555 L354.262304,13.800712 C354.262304,13.148356 354.829634,12.729089 354.829634,12.0136963 C354.829634,11.329089 354.262304,11.0608168 354.262304,10.3454241 L354.829634,7.8151623 C354.829634,7.66709948 354.62,6.65118325 354.62,6.53243979 L354.62,1.52762304 C354.114241,0.72573822 353.637801,0.368041885 352.712775,0.0983036649 C351.104607,0.398827225 349.824817,0.875267016 348.45267,1.38102618 C348.332461,1.43966492 347.856021,1.52762304 347.828168,1.52762304 C347.768063,1.59065969 346.903141,1.79736126 346.845969,1.79736126 C346.784398,1.85746597 345.353613,2.36175916 345.146911,2.78102618 C345.028168,2.87045026 344.995916,3.07715183 344.995916,3.22668063 C344.995916,3.4055288 344.995916,3.43484817 345.028168,3.6151623 C345.654136,4.53872251 345.504607,4.4786178 346.369529,4.98437696 C346.426702,5.04594764 346.57623,5.10312042 346.727225,5.13390576 L348.332461,6.38437696 C348.483455,6.65118325 348.899791,7.99401047 349.166597,8.23149738 L348.899791,9.63003141 C348.899791,10.9127539 349.585864,12.1045864 349.673822,13.2964188 L349.733927,14.0704503 L349.317592,23.1257382 C349.317592,23.7531728 349.46712,24.257466 349.585864,25.0329634 C349.615183,25.5094031 350.031518,25.7161047 350.031518,26.1353717 C350.031518,26.4314974 349.88199,26.7012356 349.88199,26.7320209 L349.88199,27.8329634 C349.763246,28.8459476 349.585864,29.8296126 349.585864,31.021445 L349.733927,33.9695079 C349.733927,34.0002932 349.37623,34.9223874 349.37623,35.1012356 C349.37623,35.6685654 349.585864,36.0247958 349.585864,36.530555 L349.166597,38.4363141 L349.37623,39.7190366 L349.37623,40.1954764 C349.317592,40.403644 348.808901,41.3873089 348.632984,41.475267 C347.768063,42.2492984 346.933927,42.0396649 345.654136,42.4589319 L344.789215,42.8166283 C344.789215,42.8166283 344.462304,43.1743246 344.462304,43.2930681 C344.462304,44.1565236 344.789215,45.0815497 345.20555,45.5579895 L346.57623,45.4377801 C347.856021,45.4377801 348.632984,44.7810262 349.733927,44.7810262 C349.94356,44.7810262 350.031518,44.7810262 350.301257,44.930555 L352.922408,45.0815497 L354.114241,45.0815497 C354.52911,45.0815497 355.243037,45.1387225 356.077173,45.1387225 C356.673822,45.1387225 356.942094,44.7810262 357.507958,44.6622827 C357.865654,44.5728586 358.133927,43.6800838 358.133927,43.1743246 C358.133927,42.8166283 358.015183,42.548356 357.808482,42.5175707 C357.093089,42.3094031 356.585864,42.548356 356.077173,41.8930681 C355.243037,40.5531728 355.333927,40.6103455 354.917592,40.076733 C355.036335,39.1517068 355.09644,38.2266806 355.09644,37.3646911 C355.09644,36.5906597 355.036335,35.8151623 354.917592,35.0411309 L354.559895,33.6425969 L354.52911,32.002178 C354.52911,31.5858429 354.52911,31.2882513 354.62,30.9012356 C354.738743,30.602178 354.766597,30.3940105 354.766597,30.1873089 L354.171414,24.0478325 C354.351728,22.9762094 354.738743,22.4103455 355.333927,21.5776754 C355.512775,21.4882513 355.958429,20.6541152 356.377696,20.6541152 L361.024817,20.6541152 C361.232984,20.9810262 362.364712,21.5776754 362.602199,21.9031204 L363.169529,22.0541152 C363.49644,22.203644 364.628168,22.7680419 364.719058,22.7680419 C364.837801,22.9190366 365.283455,23.9598743 365.34356,24.257466 L365.34356,25.0329634 C365.34356,25.0916021 365.490157,25.4492984 365.490157,25.4492984 C365.847853,26.3127539 365.968063,27.2656335 365.968063,28.0425969 C365.968063,29.6199791 365.641152,31.4363141 365.490157,32.984377 L365.490157,33.6997696 C365.490157,34.3257382 365.909424,34.9223874 365.968063,35.6685654 L365.968063,37.0978848 L366.26712,37.7223874 C366.26712,37.9598743 365.998848,38.4363141 366.057487,38.3776754 C365.968063,38.4964188 365.998848,38.9142199 365.968063,39.4185131 C365.968063,39.4800838 365.847853,40.2526492 365.759895,40.3435393 C365.076754,41.8930681 364.091623,41.6834346 363.37623,41.9517068 L362.602199,42.1598743 C361.977696,42.1598743 361.62,42.7550576 361.62,43.2314974 L361.62,43.5012356 C361.62,43.8897173 361.678639,44.275267 361.977696,44.4233298 C362.392565,44.6329634 362.959895,44.6622827 363.49644,44.6622827 L365.759895,45.0815497 L369.423351,45.0815497 L371.210366,44.7810262 C371.836335,44.7810262 372.491623,45.0815497 373.26712,45.0815497 L374.101257,45.0815497 C374.517592,45.0815497 374.935393,44.8425969 375.17288,44.6622827 L375.232984,44.6622827 C375.499791,44.4233298 375.709424,44.2166283 375.709424,43.8897173 C375.709424,43.6800838 375.499791,43.2314974 375.499791,43.1127539 L375.499791,43.1127539 Z M343.032984,39.7190366 C341.483455,39.7190366 340.08199,40.6411309 338.236335,40.6411309 L337.103141,40.6411309 C336.241152,39.8377801 335.257487,39.9858429 334.630052,39.0622827 C334.48199,38.9420733 334.065654,38.1387225 333.977696,38.0800838 C334.124293,37.1550576 334.215183,36.2637487 334.215183,35.2800838 C334.215183,34.7713927 334.184398,34.1468901 334.124293,33.5810262 C334.124293,33.3728586 334.00555,33.1353717 334.00555,32.8656335 C334.00555,32.5079372 334.00555,32.3012356 334.124293,32.0622827 L333.857487,28.6069948 L333.857487,28.0704503 C333.857487,26.9079372 334.630052,25.8670995 334.630052,24.7940105 L334.363246,22.5613403 C334.363246,22.1127539 334.930576,21.4882513 335.464188,21.4882513 L336.893508,21.6363141 L338.385864,21.4882513 L340.348796,21.6363141 C342.168063,21.6363141 343.447853,21.1598743 343.447853,19.3127539 C343.447853,18.1810262 342.584398,17.1988272 341.483455,17.1988272 C339.904607,17.1988272 338.771414,17.8834346 336.746911,17.8834346 L335.345445,17.8834346 L335.197382,17.675267 L335.197382,14.2199791 C335.106492,13.4430157 334.930576,12.3142199 333.977696,12.3142199 C332.57623,12.3142199 331.026702,15.2930681 330.371414,16.5420733 C330.101675,16.8997696 329.330576,17.675267 328.821885,18.0901361 C327.781047,19.0151623 325.217068,18.8670995 325.217068,20.5045864 C325.217068,21.9940105 327.719476,21.6964188 328.49644,22.2608168 C328.703141,23.3954764 329.179581,24.675267 329.179581,25.8069948 C329.179581,26.0166283 329.060838,26.3127539 329.030052,26.5209215 L329.030052,27.4151623 L328.854136,30.5127539 L329.030052,33.4916021 L328.644503,35.9060524 C328.644503,37.2166283 328.97288,38.3776754 329.179581,39.7190366 L329.179581,41.7728586 C329.477173,43.3223874 331.742094,44.5142199 333.080524,44.930555 L336.893508,45.7045864 C337.818534,45.7045864 340.469005,44.9906597 341.273822,44.0964188 C341.631518,43.7988272 342.613717,42.548356 342.823351,42.3695079 L343.239686,41.7728586 C343.657487,41.1776754 343.748377,41.2685654 343.748377,40.7598743 C343.748377,40.3435393 343.509424,39.7190366 343.032984,39.7190366 L343.032984,39.7190366 Z M321.673822,41.1776754 C320.898325,41.1776754 320.332461,41.7450052 319.441152,41.7450052 C318.873822,41.7450052 318.516126,40.9108691 318.516126,40.403644 C318.516126,39.9858429 318.725759,39.7762094 318.725759,39.2118115 L318.516126,35.7565236 L318.516126,33.9094031 C318.694974,33.6997696 318.932461,32.984377 318.992565,32.7175707 L319.05267,32.1502408 C319.05267,31.4670995 318.992565,30.8118115 318.873822,30.2444817 C318.782932,29.529089 318.694974,28.8136963 318.694974,28.130555 L318.992565,26.9387225 L318.992565,24.6151623 C319.05267,24.3175707 319.647853,22.0541152 319.826702,21.4266806 C319.854555,21.3387225 320.394031,20.4444817 320.394031,20.3550576 C320.421885,20.2978848 320.421885,19.8786178 320.421885,19.7891937 C320.421885,16.9891937 315.953613,17.7632251 314.107958,16.9891937 L311.724293,16.0641675 L311.03822,16.0641675 C309.758429,16.0641675 309.251204,16.7517068 307.911309,17.6136963 C307.763246,17.7324398 307.763246,17.7632251 307.763246,17.9142199 C307.763246,20.0882513 313.00555,19.9401885 313.690157,22.7094031 L313.690157,24.8819686 C313.690157,25.5680419 313.898325,26.3127539 313.987749,27.0882513 C314.135812,27.8608168 314.254555,28.6069948 314.254555,29.3810262 C314.254555,30.3940105 313.483455,31.673801 313.483455,32.5079372 L313.92911,34.476733 C313.778115,35.6964188 313.540628,36.8882513 312.856021,37.9320209 C312.768063,37.9598743 312.649319,38.1695079 312.649319,38.2266806 C312.140628,40.4916021 310.890157,40.9680419 308.566597,40.9680419 C308.059372,40.9680419 305.857487,40.4916021 305.43822,40.2526492 C305.379581,40.2526492 305.290157,39.7190366 305.290157,39.6882513 C304.722827,38.7045864 303.382932,38.584377 303.382932,37.0978848 L303.382932,31.8555812 C303.473822,31.6459476 303.530995,31.5257382 303.530995,31.2281466 L303.324293,30.3940105 L303.68199,27.6233298 C303.888691,25.1824921 303.68199,22.9762094 304.395916,20.6541152 L304.395916,20.5646911 C304.395916,18.748356 303.621885,17.0492984 301.505026,17.0492984 C300.703141,17.0492984 299.987749,17.3468901 299.093508,17.3468901 L296.68199,17.1988272 L295.490157,17.1988272 C294.566597,17.1988272 293.732461,17.3175707 293.732461,18.657466 C293.732461,19.730555 295.07089,20.0281466 295.905026,20.5045864 C296.20555,20.6541152 297.604084,22.4103455 297.755079,22.9762094 L297.755079,28.5468901 L297.96178,30.8118115 C297.664188,31.2281466 297.604084,31.7925445 297.604084,32.4199791 C297.604084,33.0151623 298.021885,33.5810262 298.021885,34.2670995 L297.604084,35.7565236 L297.604084,36.0247958 C297.664188,36.1142199 297.96178,37.1550576 297.96178,37.2459476 C297.96178,37.6622827 298.021885,38.2266806 298.021885,39.003644 C298.021885,39.7762094 297.96178,40.4916021 297.96178,40.7598743 C298.945445,44.0964188 300.28534,43.4411309 303.173298,44.5728586 C303.68199,44.8425969 304.307958,44.8719162 304.932461,44.8719162 C305.499791,44.8719162 306.152147,44.8425969 306.779581,44.5728586 C306.779581,44.5728586 307.047853,44.4233298 307.195916,44.4233298 C307.225236,44.3045864 308.002199,43.6800838 308.059372,43.6507644 C308.178115,43.5891937 308.566597,43.5012356 308.955079,43.3824921 C309.340628,43.2930681 309.758429,43.1743246 309.817068,43.1127539 C310.592565,42.7550576 311.306492,41.8930681 312.08199,41.8930681 C312.768063,41.8930681 312.586283,44.275267 313.272356,45.2002932 L313.987749,45.2002932 C315.239686,45.2002932 316.104607,45.1387225 317.742094,45.0185131 C319.083455,44.0964188 322.89644,44.4541152 322.89644,42.4589319 C322.89644,41.8329634 322.447853,41.1776754 321.673822,41.1776754 L321.673822,41.1776754 Z M287.302723,36.2329634 L285.247435,39.4800838 C284.533508,40.2526492 283.756545,40.8492984 282.774346,41.3873089 L282.416649,41.7728586 C281.792147,42.1598743 281.43445,42.1598743 280.868586,42.1598743 C279.886387,42.3094031 278.842618,42.6069948 277.979162,42.6069948 L276.788796,42.6069948 C275.715707,42.1598743 275.088272,41.0589319 274.314241,40.076733 L273.182513,39.003644 C272.408482,38.0199791 271.574346,36.4396649 271.276754,35.129089 C271.125759,34.3565236 271.276754,34.1190366 270.649319,33.3728586 L270.649319,30.1257382 C270.919058,29.948356 270.919058,29.7680419 270.919058,29.4719162 C270.919058,28.8459476 270.649319,28.4002932 270.649319,27.8608168 L270.649319,27.0882513 L271.125759,25.8670995 L271.276754,24.9435393 C271.276754,24.5858429 271.426283,24.2296126 271.574346,23.8103455 L274.462304,20.4444817 L276.280105,19.3728586 L276.488272,19.3728586 C277.471937,19.3728586 278.18733,19.6704503 279.200314,19.8199791 L280.658953,19.9973613 C281.642618,20.1468901 282.297906,20.802178 283.013298,21.5776754 L283.906073,22.203644 C283.906073,22.4997696 284.533508,23.6622827 284.740209,23.8103455 L286.258953,25.5680419 C286.796963,26.2834346 286.945026,28.0425969 287.211832,28.9954764 L286.945026,30.1257382 C286.945026,30.9012356 287.421466,31.3776754 287.421466,32.0622827 C287.421466,32.6266806 287.421466,32.8084607 287.211832,33.1353717 L287.302723,36.2329634 Z M291.592147,24.5858429 L291.413298,24.2296126 C291.23445,23.8103455 290.458953,22.6800838 290.281571,22.4997696 C289.684921,21.7550576 289.356545,20.9209215 288.553194,20.2978848 C287.600314,19.6704503 286.647435,19.1632251 285.662304,18.5988272 C285.662304,18.5988272 285.037801,17.9142199 284.891204,17.9142199 L283.756545,17.9142199 C282.626283,17.6136963 281.43445,17.1094031 280.301257,17.1094031 C280.153194,17.1094031 279.886387,17.1094031 279.528691,17.256 L276.488272,17.256 C276.280105,17.256 275.239267,17.4656335 274.938743,17.6136963 L273.332042,18.2411309 L272.884921,18.2411309 L272.408482,18.4478325 L271.841152,19.0151623 C271.426283,19.3728586 270.919058,19.1632251 270.501257,19.6704503 L268.74356,20.9209215 C268.535393,21.0689843 268.177696,21.5776754 268.177696,21.5776754 L267.82,22.203644 L266.98733,23.1858429 C265.914241,25.1824921 265.080105,27.0882513 264.515707,29.1713927 L264.276754,31.7925445 L264.515707,34.1190366 C264.515707,35.6685654 265.556545,36.7401885 266.271937,38.0199791 C266.688272,38.584377 267.164712,39.2118115 267.613298,39.9858429 C268.089738,40.7012356 268.504607,41.5940105 269.22,41.9824921 L269.935393,42.3094031 L272.884921,44.3661571 L273.182513,44.5142199 L275.088272,44.6622827 L275.922408,44.8425969 C276.488272,44.8425969 278.424817,44.930555 278.751728,44.930555 L281.792147,44.8425969 C282.626283,44.8425969 282.922408,44.4541152 283.636335,44.3045864 C283.906073,44.3045864 284.891204,44.0656335 285.037801,44.0656335 L286.824817,43.0247958 C287.242618,42.8166283 287.719058,42.8166283 287.779162,42.7550576 C288.164712,42.4589319 288.493089,42.0396649 288.732042,41.7450052 C288.792147,41.6834346 288.850785,41.6262618 288.850785,41.5940105 C289.714241,40.6103455 290.609948,39.4185131 291.413298,38.3468901 L292.961361,33.7906597 L292.961361,31.6459476 L293.140209,30.9012356 L293.140209,29.948356 C293.140209,29.7680419 292.961361,28.8459476 292.75466,28.4002932 L291.592147,24.5858429 Z M259.716126,26.7891937 C259.568063,26.6411309 259.418534,26.2233298 259.267539,25.9550576 L258.733927,24.4670995 C258.733927,24.4670995 258.37623,24.1094031 258.226702,24.0478325 L254.771414,21.8459476 C252.864188,20.9810262 252.030052,20.6541152 250.124293,19.4622827 L249.826702,19.2526492 C246.280524,18.2411309 243.244503,16.3940105 243.244503,12.1632251 C243.244503,10.4641675 243.539162,10.4641675 244.316126,8.70793717 C245.298325,6.47526702 246.371414,5.52238743 248.992565,5.52238743 C250.750262,5.52238743 253.221885,5.75987435 254.771414,6.80217801 C256.051204,7.66709948 258.911309,12.8185131 259.506492,12.8185131 C259.656021,12.8185131 259.716126,12.8185131 259.716126,12.7598743 C259.834869,12.7598743 260.073822,12.5810262 260.132461,12.3713927 C260.402199,11.2704503 260.431518,10.7031204 260.431518,9.63003141 L260.431518,8.85893194 L260.192565,5.34060733 L260.759895,3.4055288 C260.759895,2.78102618 260.610366,1.85746597 259.834869,1.85746597 C258.138743,1.85746597 257.392565,3.97285864 255.843037,3.97285864 C254.771414,3.97285864 253.995916,3.43484817 252.984398,3.19589529 C251.465654,2.83966492 249.974764,2.63149738 248.277173,2.63149738 C247.145445,2.63149738 246.371414,3.55359162 245.358429,3.76322513 C244.316126,3.97285864 243.125759,3.76322513 242.291623,4.56950785 C239.519476,6.7420733 237.88199,10.8218639 237.88199,14.1584084 C237.88199,16.8997696 238.178115,17.4656335 239.995916,19.6396649 C240.146911,19.8786178 240.503141,20.4166283 240.56178,20.711288 C240.948796,21.3695079 240.860838,21.9940105 241.57623,22.6185131 C242.498325,23.4834346 243.062723,23.2444817 244.197382,24.0478325 L245.746911,25.6589319 C245.922827,25.6589319 247.08534,25.9550576 247.294974,25.9550576 C247.979581,26.2834346 248.186283,26.7891937 248.753613,27.2084607 C249.916126,27.5661571 250.958429,27.3565236 252.030052,27.9795602 C252.208901,28.130555 252.77623,28.2800838 252.80555,28.2800838 C254.413717,28.9954764 253.937277,28.9045864 254.890157,30.2444817 C255.278639,30.7209215 255.843037,31.021445 256.169948,31.4670995 L256.231518,31.6459476 C256.527644,32.7776754 256.618534,33.1353717 256.618534,34.0002932 L256.618534,34.476733 C256.618534,34.7713927 256.470471,36.2329634 256.470471,36.3824921 C256.470471,36.3824921 254.264188,40.4916021 253.937277,40.4916021 L252.71466,40.8199791 C252.566597,40.8199791 252.030052,41.0296126 251.880524,41.1776754 C251.673822,41.3257382 250.540628,42.1027016 250.303141,42.2492984 C250.243037,42.3094031 250.036335,42.3094031 249.766597,42.3094031 L249.202199,42.3094031 C248.067539,42.3094031 242.410366,40.9680419 241.903141,39.8377801 C240.592565,37.5743246 239.607435,35.6055288 238.090157,33.4916021 C237.88199,33.075267 237.553613,32.9272042 237.135812,32.9272042 C236.748796,32.9272042 236.690157,33.1353717 236.540628,33.4329634 L235.97623,39.1238534 L235.97623,39.8670995 C235.97623,44.6329634 240.799267,43.5012356 243.839686,44.6329634 L249.678639,44.8425969 C249.826702,44.8425969 250.036335,44.8719162 251.107958,44.930555 L251.465654,44.930555 C254.501675,44.930555 254.978115,42.9646911 258.077173,41.8930681 C258.524293,41.6262618 258.37623,40.9680419 258.733927,40.4916021 C259.060838,40.2834346 260.221885,39.2997696 260.431518,38.584377 C260.610366,38.4363141 261.117592,36.7401885 261.20555,36.530555 C261.20555,36.530555 261.265654,36.2637487 261.412251,36.2329634 C261.621885,35.9060524 261.831518,35.2800838 261.831518,35.2478325 L261.831518,30.8704503 C261.831518,30.4541152 261.20555,28.9954764 260.998848,28.4882513 C260.998848,28.2800838 259.925759,26.9387225 259.716126,26.7891937 L259.716126,26.7891937 Z M218.378743,16.275267 C218.320105,16.275267 218.172042,16.275267 218.172042,16.3339058 C218.022513,16.3339058 217.513822,16.4218639 217.513822,16.4849005 L216.830681,16.4849005 C215.90712,16.7517068 215.281152,17.1094031 214.359058,17.1094031 L213.375393,16.8997696 C213.224398,16.8411309 211.617696,16.7517068 211.468168,16.7517068 L210.752775,16.8411309 C210.24555,17.1680419 209.562408,16.8411309 208.489319,17.4069948 C208.221047,17.8233298 207.982094,18.2411309 207.982094,18.748356 C207.982094,18.8964188 208.01288,19.1060524 208.131623,19.4314974 L209.116754,20.1468901 C209.144607,20.1468901 209.323455,20.3550576 209.711937,20.3550576 C210.097487,20.4444817 211.170576,20.802178 211.468168,20.9810262 C211.617696,21.0689843 212.032565,21.5776754 212.032565,21.6363141 L212.032565,22.8867853 C212.095602,22.9190366 212.302304,23.3339058 212.362408,23.4834346 C212.362408,24.3175707 211.468168,24.9728586 211.230681,25.8069948 C211.230681,25.9257382 211.110471,26.7012356 211.051832,26.7891937 L210.603246,28.0425969 C210.546073,28.130555 210.455183,29.0526492 210.455183,29.1142199 C210.276335,29.2622827 210.188377,29.8296126 210.188377,29.948356 C209.76911,31.2882513 209.323455,32.5079372 208.847016,33.6997696 C208.847016,33.7906597 208.697487,34.1190366 208.697487,34.1190366 C208.489319,34.2670995 208.131623,34.6834346 208.131623,34.6834346 C207.924921,35.129089 207.505654,35.2800838 207.297487,35.2800838 C207.029215,35.2800838 206.642199,35.1012356 206.375393,34.6834346 C206.225864,34.6834346 205.956126,34.1190366 205.898953,33.8492984 L205.450366,32.9272042 C205.331623,32.8084607 205.12199,32.3012356 205.094136,32.2411309 C205.034031,32.2118115 204.676335,31.673801 204.676335,31.6459476 C204.617696,31.5257382 204.526806,30.1873089 204.526806,30.0964188 C204.26,28.9646911 202.977277,28.2185131 202.829215,27.0882513 L202.471518,25.1824921 C202.263351,24.4670995 201.578743,23.9598743 201.490785,23.1858429 C201.490785,23.0656335 200.923455,21.6964188 200.863351,21.0689843 C201.133089,20.802178 201.518639,20.9810262 201.785445,20.8622827 L202.294136,20.711288 C202.619581,20.6541152 203.425864,20.4166283 204.050366,19.730555 C204.318639,19.4314974 204.378743,18.657466 204.378743,18.329089 C204.378743,17.7632251 203.038848,17.1094031 202.294136,17.1094031 L201.490785,17.256 L200.147958,17.256 C200.029215,17.256 198.749424,17.4656335 198.242199,17.675267 C198.123455,17.7324398 196.900838,17.9713927 196.782094,17.9713927 L196.009529,17.9713927 L195.232565,17.675267 C195.084503,17.675267 194.578743,17.6136963 194.160942,17.6136963 C193.683037,17.6136963 193.297487,17.675267 193.178743,17.675267 C192.554241,17.3175707 191.986911,17.1094031 191.390262,17.1094031 C190.647016,17.1094031 190.079686,17.3468901 190.079686,18.748356 C190.079686,19.0151623 190.557592,19.1060524 190.704188,19.4314974 L190.973927,19.8199791 C192.344607,20.5045864 193.683037,20.8622827 194.817696,21.784377 C194.995079,21.8459476 195.232565,22.1420733 195.232565,22.2608168 C195.294136,22.3223874 195.41288,22.8281466 195.41288,22.8867853 C195.978743,24.1094031 196.991728,25.8069948 197.320105,27.0882513 C197.320105,27.2084607 197.408063,28.5468901 197.468168,28.6377801 C197.468168,28.6949529 197.705654,28.9045864 197.765759,28.9646911 C197.765759,28.9954764 198.035497,29.5598743 198.063351,29.6199791 L199.164293,32.4507644 L200.147958,33.8492984 L200.565759,34.9223874 C200.595079,34.9810262 201.429215,35.6685654 201.490785,35.875267 C201.518639,35.875267 201.637382,36.5906597 201.637382,36.9468901 C201.728272,37.0978848 201.847016,38.2897173 201.876335,38.3776754 L202.829215,39.9858429 C202.829215,40.1339058 203.334974,41.8329634 203.396545,41.9824921 C203.425864,42.3094031 204.16911,43.7387225 204.16911,44.0084607 C204.199895,44.0964188 204.318639,45.4377801 204.318639,46.0622827 C204.318639,46.1223874 204.378743,46.3613403 204.378743,46.4800838 C204.378743,47.3142199 204.111937,47.821445 203.69267,48.5368377 L203.902304,49.7858429 C203.69267,50.1420733 202.858534,51.7223874 202.829215,52.0492984 C202.770576,52.2589319 202.619581,53.1839581 202.619581,53.2719162 C202.41288,54.3743246 202.263351,54.6704503 201.637382,55.6541152 C201.490785,55.8622827 201.309005,55.8622827 200.595079,55.8622827 C200.180209,55.8622827 199.941257,55.8930681 199.822513,55.8930681 L199.164293,56.0997696 L198.063351,55.8930681 C197.972461,55.8930681 197.050366,56.0118115 196.782094,56.0997696 C195.442199,56.4882513 194.817696,57.0541152 194.637382,57.9776754 C194.46,58.3954764 194.46,58.6329634 194.46,58.9906597 C194.46,60.6897173 196.573927,61.7320209 198.063351,61.7320209 C198.450366,61.7320209 198.897487,61.7320209 199.373927,61.5810262 L199.970576,61.1045864 C200.744607,60.8670995 201.518639,60.8978848 202.055183,60.1824921 C202.471518,59.7368377 202.352775,59.675267 202.829215,59.2603979 C203.21623,58.9027016 203.544607,58.9027016 203.69267,58.3353717 C203.78356,58.2166283 204.16911,57.2916021 204.16911,57.203644 C204.82733,55.7142199 205.094136,55.5045864 205.094136,55.5045864 C205.094136,55.3858429 205.18356,54.7320209 205.240733,54.6704503 L206.074869,53.5988272 C206.375393,52.675267 206.225864,50.5906597 206.999895,49.9954764 C206.999895,49.6084607 207.090785,47.7598743 207.147958,47.3142199 C207.147958,47.3142199 207.357592,46.5680419 207.505654,46.3613403 C207.505654,46.330555 207.715288,46.1223874 207.773927,46.0622827 C208.221047,45.2002932 208.934974,44.2166283 208.996545,43.2314974 C209.263351,41.5940105 208.996545,39.8377801 209.323455,38.2266806 L210.188377,36.4704503 C210.546073,35.8151623 210.546073,35.1012356 210.960942,34.2670995 C211.022513,34.2670995 211.230681,33.7613403 211.230681,33.6997696 L211.230681,32.6266806 C211.528272,31.3776754 212.451832,30.1257382 213.017696,29.1142199 C213.167225,29.0526492 213.643665,28.130555 213.700838,28.0425969 L213.700838,26.4930681 C213.731623,26.3743246 214.359058,25.5094031 214.359058,25.3891937 C214.41623,25.3584084 214.50712,24.5242723 214.50712,24.4670995 C214.565759,24.3762094 214.685969,24.0199791 214.685969,23.8103455 C215.193194,22.7680419 215.608063,21.6964188 216.264817,20.6541152 C217.456649,20.3550576 218.438848,20.4444817 219.363874,19.5824921 L220.49267,18.657466 C220.762408,18.329089 221.120105,18.2411309 221.120105,17.7632251 C221.120105,16.9891937 219.063351,16.275267 218.378743,16.275267 L218.378743,16.275267 Z M189.074031,41.9824921 C188.892251,42.0396649 188.835079,42.0396649 188.716335,42.0396649 C188.506702,42.0396649 188.267749,41.9517068 187.851414,41.6834346 C186.510052,41.3873089 186.80911,40.9680419 186.510052,40.6411309 C186.422094,40.6103455 186.422094,40.4344293 186.301885,40.4344293 L186.243246,40.4344293 L186.033613,39.9858429 C186.004293,39.6882513 185.527853,37.4555812 185.467749,37.0363141 L185.467749,37.0069948 C185.467749,36.6786178 185.675916,35.2800838 185.737487,34.7713927 C185.825445,33.6997696 185.945654,33.075267 185.945654,32.0622827 C185.825445,30.1873089 185.527853,29.2622827 185.467749,27.5661571 L185.467749,27.0882513 C185.467749,26.3743246 185.825445,25.7161047 186.004293,24.8247958 C185.945654,23.275267 185.945654,21.9031204 185.79466,20.3550576 C185.737487,19.8199791 185.436963,19.5209215 185.436963,19.1060524 C185.646597,18.2997696 186.095183,17.675267 186.243246,17.0492984 L186.033613,15.1420733 C186.152356,14.9353717 186.152356,14.6348482 186.152356,13.8622827 C186.152356,13.3550576 186.095183,13.0867853 185.945654,12.7598743 L186.033613,10.7031204 L186.004293,9.15359162 C186.004293,8.20071204 186.033613,7.21851309 186.36199,6.38437696 C186.510052,5.52238743 186.571623,4.56950785 186.571623,3.64448168 C186.571623,2.7194555 186.510052,1.73725654 186.36199,0.72573822 C186.36199,0.456 186.033613,0.456 185.646597,0.456 C184.038429,0.517570681 182.997592,1.1420733 181.505236,1.52762304 C181.357173,1.73725654 179.955707,2.36175916 179.80911,2.36175916 C179.391309,2.45264921 178.378325,2.78102618 177.544188,2.98919372 C177.127853,3.07715183 176.976859,3.76322513 176.976859,4.06081675 C177.039895,4.26898429 177.127853,4.26898429 177.425445,4.89495288 C177.901885,5.88008377 180.075916,6.53243979 180.523037,7.24783246 C180.583141,8.20071204 180.523037,8.85893194 180.789843,10.257466 C181.059581,11.2704503 181.059581,12.3142199 181.059581,13.1762094 C181.059581,13.800712 180.583141,14.0103455 180.583141,14.5161047 C180.583141,15.202178 180.789843,15.5598743 181.090366,15.7695079 C180.940838,16.3940105 180.940838,16.9613403 180.940838,17.5257382 C180.940838,18.1209215 180.940838,18.5988272 181.090366,19.2247958 C180.789843,19.4314974 180.789843,19.4622827 180.789843,19.6704503 C180.789843,21.5454241 180.880733,23.4526492 180.999476,25.3012356 L181.20911,28.4002932 C181.266283,29.4719162 181.298534,30.5127539 181.417277,31.5858429 C181.298534,32.1502408 181.298534,33.6425969 181.298534,35.0411309 L181.298534,38.3468901 C181.298534,39.5094031 180.495183,41.4166283 179.510052,42.1027016 C179.360524,42.1027016 178.945654,42.0396649 178.526387,41.9517068 C178.168691,42.1027016 177.425445,42.1598743 177.277382,42.1598743 C177.246597,42.1598743 176.620628,42.1598743 176.262932,42.3094031 L175.578325,43.3824921 L175.578325,44.7810262 L175.936021,45.0815497 L176.563455,45.0815497 C176.770157,45.1387225 176.919686,45.1387225 177.039895,45.1387225 L178.617277,44.9906597 C179.540838,44.9906597 180.643246,45.1387225 181.566806,45.2281466 C183.054764,45.2002932 183.919686,44.8425969 185.675916,44.7810262 C185.737487,44.7810262 185.825445,44.8425969 185.825445,44.8425969 L187.287016,44.930555 C187.435079,44.930555 188.506702,44.9906597 188.625445,45.0185131 L189.550471,45.1387225 C190.026911,45.2281466 190.323037,45.2281466 190.591309,45.2281466 C190.890366,45.2281466 191.246597,45.2281466 191.57644,45.2882513 C191.813927,45.2002932 191.872565,44.930555 191.872565,44.6622827 L191.872565,43.6507644 C191.872565,43.2314974 191.872565,42.9646911 191.664398,42.8166283 C190.949005,42.1027016 189.698534,42.1027016 189.074031,41.9824921 L189.074031,41.9824921 Z M174.744188,4.68825131 C174.682618,4.62668063 173.433613,3.43484817 173.284084,3.43484817 C172.628796,3.28678534 172.004293,3.22668063 171.436963,3.22668063 C170.721571,3.22668063 170.035497,3.28678534 169.410995,3.43484817 C169.025445,3.6151623 168.815812,3.76322513 168.458115,3.76322513 C168.191309,3.76322513 167.475916,3.07715183 167.11822,2.92908901 C166.432147,2.83966492 165.807644,2.78102618 165.212461,2.78102618 C164.378325,2.78102618 163.601361,2.83966492 162.679267,2.92908901 C160.923037,3.07715183 159.223979,2.92908901 157.762408,3.43484817 C156.960524,3.55359162 156.185026,3.6151623 155.35089,3.6151623 C154.516754,3.6151623 153.711937,3.55359162 152.996545,3.43484817 C152.462932,3.6151623 151.955707,3.6151623 151.537906,3.6151623 L150.882618,3.6151623 C149.84178,3.6151623 149.126387,3.13872251 148.292251,3.13872251 C148.022513,3.13872251 147.991728,3.13872251 147.785026,3.43484817 C147.069634,3.55359162 146.324921,3.64448168 145.728272,3.64448168 C145.045131,3.64448168 144.388377,3.55359162 143.702304,3.43484817 C143.346073,2.98919372 142.780209,2.92908901 142.215812,2.92908901 L141.500419,2.92908901 C140.814346,2.92908901 139.742723,3.4055288 139.11822,3.76322513 L139.11822,4.21181152 C139.11822,6.65118325 143.287435,6.0281466 144.687435,6.59401047 C145.819162,7.09976963 147.368691,8.64929843 147.368691,10.0492984 C147.578325,10.8526492 147.635497,11.6281466 147.635497,12.402178 C147.635497,13.2363141 147.515288,14.0704503 147.368691,14.8444817 C147.308586,14.9925445 147.220628,15.4997696 147.220628,15.6507644 C147.220628,16.8997696 147.934555,18.2997696 147.934555,19.6396649 L147.934555,21.9339058 L148.292251,23.2444817 C148.292251,23.275267 148.349424,24.0199791 148.349424,24.2296126 C148.349424,25.5973613 147.724921,26.8507644 147.724921,28.1891937 C147.724921,32.6266806 148.230681,34.0002932 148.230681,38.2266806 C148.230681,40.6103455 143.407644,42.2492984 141.500419,42.3973613 C140.87445,42.8166283 140.516754,43.3824921 140.516754,44.0084607 C140.786492,44.930555 141.381675,45.0815497 142.272984,45.4069948 L143.407644,45.4069948 C143.555707,45.4069948 143.702304,45.4069948 143.853298,45.348356 C144.121571,45.348356 144.329738,45.4377801 144.59801,45.4949529 C145.251832,45.348356 145.609529,44.8719162 146.085969,44.7238534 C147.100419,44.8719162 147.934555,44.930555 148.976859,44.930555 C149.898953,44.930555 150.882618,44.8719162 151.804712,44.7238534 C152.820628,44.4541152 153.235497,44.4233298 154.069634,44.4233298 C155.617696,44.4233298 157.734555,44.8425969 159.072984,45.5579895 L159.640314,45.7045864 C160.415812,45.7646911 160.861466,45.7954764 161.399476,45.7954764 C161.785026,45.7954764 162.409529,45.7646911 162.828796,45.7045864 L162.885969,45.7045864 C163.692251,45.7045864 164.585026,44.5142199 164.585026,43.6800838 C164.585026,42.873801 163.75089,42.3973613 163.334555,42.0396649 C163.095602,42.0396649 162.828796,42.0396649 162.560524,41.9824921 C162.321571,41.9517068 161.963874,41.9517068 161.695602,41.9517068 C161.428796,41.9517068 161.219162,41.9517068 160.923037,41.9824921 C160.653298,42.0396649 160.446597,42.0396649 160.146073,42.0396649 C159.99801,42.0396649 159.223979,41.9517068 159.072984,41.8930681 C159.072984,41.8329634 158.747539,41.475267 158.716754,41.475267 C157.110052,40.6411309 155.261466,39.7190366 154.636963,37.7824921 C154.695602,37.5127539 154.78356,37.2166283 154.78356,35.875267 C154.78356,33.0151623 154.279267,30.1873089 153.654764,27.2656335 C153.654764,26.5209215 154.279267,25.8069948 154.636963,25.3891937 C155.708586,25.3584084 156.991309,24.8247958 158.032147,24.8247958 L159.849948,25.1517068 C160.923037,25.3584084 162.529738,25.3891937 163.901885,25.3891937 L165.240314,25.3891937 C167.207644,26.5209215 167.921571,28.130555 168.755707,30.0363141 L169.173508,30.9598743 C169.589843,31.3776754 169.79801,31.9435393 170.393194,31.9435393 C170.75089,31.9435393 170.75089,31.7925445 170.931204,31.4670995 C171.079267,31.3776754 171.079267,31.1094031 171.079267,30.5127539 C171.079267,28.6069948 169.677801,26.9387225 169.677801,24.9435393 C169.677801,23.8103455 169.887435,22.7094031 170.097068,21.3387225 C170.305236,20.4166283 170.393194,19.5209215 170.393194,18.5988272 L170.393194,17.3468901 C170.186492,16.8997696 169.978325,16.8997696 169.740838,16.8997696 C167.414346,16.8997696 168.606178,21.0118115 166.908586,22.1420733 C165.776859,22.9762094 162.679267,22.9762094 160.56534,22.9762094 C159.788377,22.9762094 159.163874,23.0377801 158.716754,23.0656335 C158.508586,23.4834346 158.301885,23.4834346 158.032147,23.4834346 C156.809529,23.4834346 155.498953,23.0656335 154.279267,22.9190366 C154.069634,22.6800838 153.654764,22.1420733 153.654764,21.784377 L154.131204,17.3468901 C154.131204,16.275267 153.50377,15.4118115 153.50377,14.4867853 L153.773508,12.6088796 C153.773508,11.5988272 153.354241,10.8218639 153.354241,9.89976963 C153.354241,9.42332984 153.445131,8.14353927 153.654764,7.99401047 C154.337906,7.57620942 154.488901,7.30940314 154.488901,6.47526702 C154.488901,6.29495288 154.516754,5.96804188 154.934555,5.81851309 C155.410995,5.55024084 156.066283,5.55024084 157.586492,5.55024084 C158.238848,5.55024084 159.015812,5.55024084 159.669634,5.34060733 L161.963874,5.34060733 C161.99466,5.31275393 162.202827,5.31275393 164.316754,5.31275393 C164.378325,5.25264921 164.466283,5.25264921 164.645131,5.25264921 C166.698953,5.25264921 167.981675,5.67045026 169.978325,7.4281466 L171.436963,8.94689005 C171.436963,9.0055288 171.527853,9.83966492 171.585026,9.89976963 C171.734555,10.1387225 172.449948,11.6281466 172.449948,11.8069948 C172.838429,12.402178 173.760524,13.5060524 174.206178,14.0704503 C175.340838,14.0704503 175.340838,12.8185131 175.340838,11.8949529 C175.340838,10.8526492 175.131204,9.89976963 174.744188,8.94689005 L174.744188,4.68825131 Z M120.416859,33.5517068 C120.356754,33.4916021 119.999058,32.8084607 119.999058,32.7776754 C119.283665,30.8118115 118.86733,29.948356 117.108168,28.8136963 L116.186073,28.1891937 L114.429843,28.1891937 C114.072147,28.130555 113.295183,27.3565236 112.524084,27.2964188 L110.883665,27.2964188 C110.259162,27.2084607 109.215393,27.0882513 108.799058,26.7320209 C108.353403,26.3127539 108.648063,25.5680419 108.233194,25.2396649 C107.63801,24.6151623 107.1,24.8819686 107.1,24.0199791 C107.218743,23.7531728 107.457696,23.0656335 107.457696,22.8867853 L107.309634,22.2608168 C107.309634,20.6541152 110.912984,19.5824921 112.166387,19.5824921 C112.818743,19.5824921 113.207225,19.5824921 113.356754,19.730555 C114.072147,20.2978848 114.636545,20.4166283 115.412042,21.0118115 L115.828377,21.3695079 C116.06733,21.9339058 116.603874,23.4526492 117.020209,23.7531728 C117.199058,23.8103455 117.199058,24.257466 117.317801,24.3175707 L117.615393,24.8247958 C119.164921,24.8247958 118.719267,21.9031204 118.925969,20.802178 C119.104817,20.5646911 119.104817,20.2348482 119.104817,19.9401885 L119.164921,19.1632251 C119.164921,18.657466 119.641361,18.2997696 119.641361,17.675267 C119.641361,17.675267 119.491832,17.3468901 119.491832,17.256 C119.371623,17.1988272 119.283665,17.1094031 119.164921,17.1094031 C119.104817,17.0492984 119.076963,17.0492984 119.015393,17.0492984 C118.600524,17.0492984 117.942304,17.5565236 117.527435,17.5565236 L115.828377,16.8411309 L113.446178,16.4849005 L111.538953,16.7517068 C111.093298,16.7517068 110.674031,16.4849005 110.259162,16.4849005 C110.140419,16.4849005 109.782723,16.7517068 109.751937,16.7517068 C109.633194,16.7795602 109.275497,16.8997696 109.215393,16.8997696 C108.917801,16.9613403 107.876963,17.5565236 107.66733,17.5565236 C107.66733,17.7324398 107.280314,18.0901361 107.1,18.1810262 C107.070681,18.4478325 106.145654,19.2247958 106.026911,19.4314974 C105.550471,19.7891937 105.312984,20.5045864 104.628377,20.6541152 C104.121152,21.5454241 103.706283,22.4103455 103.706283,23.6622827 L104.121152,24.6151623 C104.540419,26.4314974 104.389424,28.5468901 106.026911,29.7680419 L107.846178,30.8704503 C108.441361,31.3161047 108.917801,32.2411309 109.751937,32.3598743 C112.254346,32.8656335 114.280314,32.8656335 116.186073,34.6247958 C117.317801,35.6055288 117.885131,36.530555 117.885131,38.0800838 L117.885131,38.3468901 C117.885131,38.7353717 117.82356,38.8541152 117.527435,39.1517068 C117.050995,39.7190366 115.709634,40.9680419 115.621675,41.0589319 C115.501466,41.2069948 114.338953,41.5353717 113.922618,41.6834346 C113.771623,41.6834346 112.373089,41.7728586 112.254346,41.8329634 L111.389424,41.9824921 C110.407225,41.9824921 109.573089,41.6834346 109.124503,41.0589319 C108.857696,40.7012356 108.202408,40.6103455 107.995707,40.1339058 L107.012042,38.7045864 C106.891832,38.1387225 106.803874,38.1695079 106.296649,37.9320209 C105.820209,37.6622827 105.730785,35.548356 105.521152,35.548356 C104.212042,35.548356 103.973089,38.7045864 103.973089,39.6882513 C103.973089,39.9858429 103.763455,40.6411309 103.763455,41.2685654 C103.763455,41.475267 103.825026,41.7450052 103.854346,41.8930681 C105.164921,43.1743246 105.820209,43.4411309 106.803874,43.7387225 L107.309634,44.0084607 C107.368272,44.0084607 107.995707,44.0964188 108.14377,44.1565236 C108.202408,44.1565236 109.124503,44.5728586 109.215393,44.6329634 C109.335602,44.6329634 110.259162,44.8719162 110.46733,44.930555 L111.480314,44.930555 C112.015393,45.0185131 112.254346,45.0185131 113.207225,45.0815497 C113.595707,45.0815497 114.280314,44.5728586 114.636545,44.4541152 C114.696649,44.4233298 115.560105,44.3045864 115.621675,44.3045864 L116.392775,44.1565236 L116.750471,43.6800838 C116.750471,43.6800838 117.317801,43.3824921 117.377906,43.3223874 C117.766387,43.0247958 119.076963,41.5940105 119.164921,41.475267 C120.059162,40.4344293 120.563455,38.1387225 120.563455,36.8882513 L120.563455,35.875267 C120.563455,35.6055288 120.148586,34.5646911 120.148586,34.476733 L120.416859,33.5517068 Z M90.7720419,38.7045864 C90.6840838,38.9142199 90.6225131,39.2118115 90.6225131,39.3613403 C90.6225131,39.5094031 90.6840838,39.5695079 90.6840838,39.7762094 C90.6840838,39.9858429 90.6840838,40.076733 90.6225131,40.2526492 C90.4143455,41.3873089 86.752356,41.8329634 86.0941361,41.8329634 C84.6354974,41.8329634 83.5037696,41.0296126 82.3134031,40.4344293 C78.3494241,38.7045864 77.0095288,35.0411309 77.0095288,30.3060524 C77.0095288,27.2656335 79.4840838,20.1468901 83.5037696,20.1468901 L86.5427225,20.1468901 C86.8095288,20.1468901 87.1672251,20.1468901 87.5249215,20.0882513 C88.3590576,20.2348482 90.7720419,22.3517068 90.9230366,23.0377801 L91.3994764,25.2396649 L91.606178,25.8069948 L91.606178,32.2118115 C91.3994764,32.4507644 91.3379058,32.8656335 91.3379058,33.2233298 L91.3994764,34.2670995 C91.3994764,35.2478325 91.7571728,36.1142199 91.7571728,36.9468901 C91.7571728,37.5743246 90.9230366,38.5272042 90.7720419,38.7045864 L90.7720419,38.7045864 Z M101.139372,41.9824921 C100.630681,41.9824921 99.8595812,42.1598743 99.025445,42.1598743 C96.5508901,42.1598743 96.134555,39.6281466 96.134555,37.4555812 L96.134555,35.2478325 L96.7605236,31.2281466 L96.4028272,25.5094031 L96.7605236,22.3517068 L96.4028272,20.2978848 L96.6109948,17.7632251 C96.6109948,16.9891937 97.1182199,16.3339058 97.1182199,15.4997696 C97.1182199,14.7858429 96.7605236,13.9517068 96.7605236,13.0281466 L97.533089,10.2882513 L97.533089,7.6055288 C97.533089,6.08678534 98.1004188,4.62668063 98.1004188,2.87045026 C98.1004188,1.73725654 97.1182199,0.368041885 95.7768586,0.368041885 L92.3215707,0.368041885 C91.5475393,0.605528796 89.134555,1.02332984 87.9441885,1.79736126 C87.6744503,1.94689005 87.3768586,2.30458639 87.3768586,2.66228272 C87.3768586,2.98919372 87.6436649,3.28678534 87.7931937,3.55359162 C88.7783246,4.18102618 88.8662827,4.4786178 89.4306806,4.89495288 C90.4143455,5.69830366 91.5475393,5.90793717 91.5475393,7.09976963 C91.5475393,7.57620942 91.3994764,7.93390576 91.3994764,8.35024084 C91.3994764,9.06563351 91.5475393,9.83966492 91.5475393,10.4069948 C91.5475393,12.5810262 91.2484817,14.9353717 90.6225131,16.9891937 C90.4143455,17.5565236 88.1508901,17.9713927 87.5249215,17.9713927 C87.1672251,17.9713927 86.752356,17.5565236 86.2451309,17.5565236 C85.0532984,17.5565236 83.861466,17.9713927 82.7297382,18.2997696 C78.9167539,19.1632251 76.8013613,19.6704503 74.5085864,23.0377801 L73.733089,23.9598743 C73.3446073,24.257466 72.988377,24.257466 72.7802094,24.7339058 C72.4225131,25.5094031 72.4225131,27.4151623 72.1850262,28.2185131 L71.8273298,29.1713927 L71.7672251,29.6199791 L71.8273298,30.7517068 C71.8273298,31.2281466 71.7672251,31.5858429 71.4095288,32.002178 C71.4095288,35.1012356 71.6191623,35.4867853 71.6191623,35.6685654 L72.7802094,37.8704503 C72.988377,38.5272042 73.1071204,39.2704503 73.4648168,39.8377801 C75.0128796,41.9824921 77.0696335,43.6800838 80.1686911,44.0964188 C81.0013613,44.5728586 82.0744503,44.8719162 82.7898429,44.8719162 L83.1460733,44.8719162 C85.4109948,44.8719162 87.3167539,43.7387225 89.4922513,43.1127539 L90.2648168,43.1127539 C90.7720419,44.6622827 91.606178,45.6459476 93.3624084,45.6459476 C93.8710995,45.6459476 94.4354974,45.2002932 95.0028272,45.2002932 L96.7605236,44.930555 L98.5490052,45.0815497 C100.305236,45.0815497 101.913403,44.8719162 101.913403,43.1127539 C101.913403,42.5175707 101.76534,41.9824921 101.139372,41.9824921 L101.139372,41.9824921 Z M70.3041885,19.4314974 C69.8277487,18.748356 69.3234555,18.0901361 68.3984293,18.0901361 L68.0715183,18.0901361 C68.0114136,18.0901361 67.0878534,18.4478325 66.9998953,18.4478325 C66.7917277,18.5094031 65.7201047,18.5988272 65.5998953,18.5988272 C65.4503665,18.748356 64.8229319,19.1632251 64.7657592,19.2247958 L63.5431414,20.1468901 C63.3364398,20.4166283 62.4114136,21.0118115 62.0830366,21.0689843 C62.0830366,21.130555 61.9071204,21.130555 61.786911,21.130555 C60.2388482,21.130555 61.1301571,19.1060524 60.5642932,18.2411309 C60.385445,18.0901361 59.8195812,17.5565236 59.7902618,17.5257382 L59.313822,17.5257382 C57.7642932,17.5257382 56.9301571,18.9550576 55.4099476,19.4314974 C55.2912042,19.4314974 54.2195812,19.5209215 54.0715183,19.6704503 C53.7431414,19.730555 52.7609424,20.2069948 52.6128796,20.2978848 L51.1835602,21.7550576 L52.9397906,23.3954764 C52.9397906,23.4526492 53.2960209,23.8997696 53.3268063,23.8997696 C54.0114136,24.7940105 55.0243979,25.6589319 55.2340314,26.7891937 C55.2340314,26.9988272 55.3527749,28.0425969 55.4099476,28.2800838 C55.4099476,28.4281466 55.5609424,30.0964188 55.6195812,30.602178 L55.6195812,30.8118115 C55.5609424,30.9598743 55.4099476,32.0930681 55.4099476,32.2411309 L55.4099476,36.8281466 L55.2340314,37.7223874 C55.2032461,38.0199791 55.2032461,38.4964188 55.2032461,39.0622827 C55.2032461,39.5094031 55.2032461,40.076733 55.2340314,40.2526492 C55.2032461,40.2834346 55.0243979,40.8199791 54.785445,40.8199791 L54.0715183,41.0589319 C53.6537173,41.2069948 53.6537173,41.5940105 53.3268063,41.7728586 C53.0893194,41.8930681 52.4032461,42.0396649 51.9546597,42.5175707 C51.7479581,42.7272042 51.1835602,42.8166283 51.1835602,43.1127539 L51.1835602,43.6800838 C51.1835602,43.8589319 51.2715183,44.0964188 51.4210471,44.3045864 C51.985445,44.5728586 52.1936126,44.6329634 52.312356,44.6622827 C52.3739267,44.7238534 52.5219895,44.7810262 52.5513089,44.7810262 C53.2373822,44.8719162 53.5950785,44.930555 53.6537173,44.930555 L54.0715183,45.2281466 L54.5758115,45.2281466 L56.4830366,44.7810262 L57.8243979,45.2281466 C58.8652356,45.2281466 59.8195812,44.7810262 60.9219895,44.7810262 C61.3397906,44.7810262 61.7253403,44.930555 62.0537173,44.930555 C62.4114136,44.930555 62.9787435,44.930555 63.6325654,44.8719162 L64.585445,44.7810262 C64.8229319,44.7810262 65.0926702,44.7238534 65.1806283,44.6622827 C65.4503665,44.4541152 65.5998953,44.3045864 65.5998953,43.8897173 C65.5998953,43.3824921 65.331623,42.9368377 65.0926702,42.6069948 C64.258534,42.1598743 62.9787435,41.9824921 62.4114136,41.7728586 C61.9349738,41.6262618 61.6373822,41.2069948 61.2796859,41.0296126 C61.1609424,41.0296126 61.0729843,40.8492984 61.0729843,40.8199791 C60.9219895,40.4344293 60.0292147,38.9420733 59.9383246,38.4964188 C59.8811518,38.4964188 59.8811518,38.3776754 59.8811518,38.3468901 L60.0878534,37.2459476 L59.8811518,36.2329634 C59.8811518,35.8151623 60.0878534,35.548356 60.0878534,35.2800838 L59.8811518,34.2670995 L60.0878534,31.5858429 C60.0292147,31.3776754 59.9383246,30.8704503 59.9383246,30.8118115 L59.9383246,29.2622827 L59.7902618,28.4281466 L59.9383246,26.2834346 C59.9383246,25.7161047 61.0729843,24.3175707 61.4878534,24.2296126 L61.8440838,23.7531728 L62.9171728,23.4526492 L64.1984293,23.6622827 C64.3772775,23.6622827 65.4503665,23.7531728 66.0147644,24.4670995 C66.6729843,25.3584084 66.315288,25.7161047 67.9835602,25.7161047 C68.2796859,25.7161047 68.8455497,25.6589319 69.2032461,25.5680419 C70.4551832,24.675267 70.9624084,23.1257382 70.9624084,21.2199791 C70.9624084,21.2199791 70.7527749,20.9810262 70.7527749,20.9209215 C70.5431414,20.5925445 70.604712,19.7891937 70.3041885,19.4314974 L70.3041885,19.4314974 Z M41.3351832,15.2241675 L42.4991623,15.2241675 C42.884712,15.2241675 43.4227225,15.2241675 43.6616754,14.9544293 C43.7804188,14.8943246 44.4958115,14.2991414 44.5529843,14.1202932 C44.5837696,14.1202932 45.3299476,13.8813403 45.4179058,13.8227016 C46.1919372,13.1366283 46.34,12.2731728 46.34,11.2924398 C46.34,10.9919162 45.9251309,9.02751832 45.5674346,8.93662827 C45.3299476,8.93662827 44.1381152,8.81788482 43.8375916,8.66982199 C43.7188482,8.66982199 43.0034555,8.3707644 42.884712,8.31359162 L42.5885864,8.31359162 C42.1121466,8.31359162 41.4553927,8.31359162 40.9789529,8.66982199 L40.6828272,9.29432461 L39.6991623,10.069822 L38.7756021,10.9919162 L38.7140314,11.8568377 C38.7140314,13.1073089 39.4294241,13.8227016 40.1154974,14.8049005 C40.6828272,15.2241675 40.8895288,15.2241675 41.3351832,15.2241675 L41.3351832,15.2241675 Z M46.668377,42.1598743 C46.4015707,42.1027016 45.7756021,41.8329634 45.7756021,41.3873089 C45.7448168,40.7598743 45.4179058,37.9320209 45.4179058,37.2459476 C45.4179058,36.6786178 45.5366492,34.476733 45.5674346,34.2670995 L45.5674346,33.6425969 C45.5366492,33.5517068 45.4179058,32.984377 45.4179058,32.8656335 C45.357801,32.8656335 45.357801,31.8555812 45.357801,31.3161047 C45.357801,31.021445 45.357801,29.948356 45.4179058,29.8867853 L45.5674346,28.8136963 C45.6260733,26.1646911 45.5674346,23.6901361 45.7756021,21.130555 L45.9823037,20.4166283 L45.9823037,19.4622827 C45.9823037,19.075267 45.9251309,18.4478325 45.5674346,18.2997696 C45.3299476,18.1810262 44.286178,17.9713927 44.0765445,17.9713927 C43.9885864,17.9713927 43.4520419,17.9142199 43.2424084,17.9142199 L42.3789529,17.9713927 C41.811623,18.5988272 41.5448168,18.5387225 40.8308901,18.8964188 L38.6260733,20.0281466 C38.0001047,20.2069948 37.0765445,20.2069948 37.0765445,21.0689843 C37.3756021,21.9031204 37.9429319,22.4103455 38.6260733,22.8867853 L39.5481675,23.1858429 C39.9058639,23.4526492 40.3251309,24.257466 40.4731937,24.675267 L40.4731937,27.5031204 C40.4731937,27.8608168 40.8308901,29.2622827 40.8308901,29.4103455 L40.8308901,31.1680419 L40.6828272,33.8492984 L40.6828272,36.621445 L40.3251309,38.0199791 C39.9967539,39.2118115 39.9967539,40.4344293 39.8486911,41.7728586 C39.4001047,42.5175707 38.6260733,42.548356 37.7318325,42.548356 L37.0765445,42.548356 L36.5121466,42.873801 C36.3934031,43.0247958 35.9448168,43.7988272 35.9448168,43.8589319 C35.9448168,43.8589319 36.0928796,44.7238534 36.1837696,44.7810262 C36.6001047,45.0185131 36.8082723,45.2002932 36.957801,45.2002932 C37.2275393,45.2002932 37.4342408,44.930555 37.9106806,44.930555 L40.413089,44.7810262 L41.2472251,44.7810262 C41.3982199,44.7810262 42.0813613,44.930555 42.1121466,44.930555 L45.7756021,44.930555 L46.4909948,45.2281466 L47.0260733,45.2281466 C47.6505759,45.2281466 48.2472251,45.2281466 48.7236649,44.8425969 C49.0813613,44.6329634 49.1429319,44.0656335 49.1429319,43.5012356 C49.1429319,42.9368377 48.9332984,42.6069948 48.6664921,42.3094031 C48.3659686,42.3094031 46.9073298,42.1906597 46.668377,42.1598743 L46.668377,42.1598743 Z M26.4834555,39.0622827 C26.1257592,39.3613403 24.9339267,40.7598743 24.5146597,40.9108691 C23.9194764,41.5940105 22.400733,42.6670995 21.4786387,42.6670995 L20.1064921,42.5175707 C19.4819895,42.5175707 19.1242932,42.873801 18.3810471,42.873801 C17.3651309,42.873801 16.6512042,42.2492984 15.8170681,41.8930681 C15.5487958,41.7450052 15.3391623,41.5940105 14.9536126,41.3873089 C12.927644,40.3435393 13.2853403,40.4344293 13.0463874,37.3045864 L12.6300524,35.9060524 L12.8382199,34.8344293 C12.8382199,33.4916021 12.4233508,32.2411309 12.4233508,31.1680419 L12.8382199,26.9988272 C12.8382199,26.5209215 12.6300524,26.2233298 12.6300524,25.5973613 C12.8382199,25.3891937 13.2252356,24.3175707 13.4040838,24.0199791 L15.1324607,23.8411309 C16.473822,23.8411309 17.7228272,24.3175707 19.3339267,24.4670995 L20.8512042,24.4670995 C22.400733,24.675267 23.5324607,25.2396649 24.7829319,26.1646911 C27.5550785,28.4882513 27.9127749,32.2118115 27.9127749,35.6964188 C27.9127749,37.0069948 26.8396859,37.9598743 26.4834555,39.0622827 L26.4834555,39.0622827 Z M12.8382199,8.64929843 L12.8382199,7.4281466 C12.9877487,6.7420733 14.7747644,5.46081675 15.3391623,5.46081675 C16.473822,5.46081675 17.2170681,6.44448168 18.2300524,6.59401047 C18.3810471,6.59401047 19.3339267,6.7420733 19.5098429,6.7420733 C22.7584293,7.03966492 24.3064921,10.257466 25.0819895,13.0867853 L25.4983246,13.8622827 L25.4983246,14.3680419 C24.4853403,16.9891937 23.1747644,20.0281466 20.8512042,21.9339058 C20.672356,21.9031204 20.4627225,21.9031204 19.7194764,21.9031204 C18.2901571,21.9031204 16.6805236,22.0541152 15.3113089,22.203644 L13.6137173,22.7680419 L13.2252356,22.2608168 C13.0463874,20.0281466 12.4233508,17.5565236 12.4233508,14.9925445 C12.4233508,13.8622827 13.0463874,12.3142199 13.0463874,11.0314974 L12.8382199,8.64929843 Z M31.1584293,25.8670995 C30.145445,25.2396649 29.3113089,24.6151623 28.1795812,24.0199791 C27.4055497,23.6901361 24.0690052,23.2444817 24.0690052,22.5613403 C24.0690052,21.0689843 26.8396859,21.3387225 27.4055497,20.6541152 L27.7309948,20.0281466 C29.0137173,19.2247958 30.0267016,18.8964188 30.8608377,17.5565236 C31.4252356,16.4218639 31.6949738,14.8444817 31.6949738,13.7127539 C31.6949738,10.7031204 31.0103665,9.72092147 29.2526702,7.21851309 C27.345445,4.53872251 24.5146597,4.56950785 21.6853403,3.4055288 L20.4627225,3.55359162 L18.0233508,3.4055288 L8.40073298,3.76322513 C8.25267016,3.49641885 6.07717277,3.4055288 4.67717277,3.4055288 L3.60554974,3.4055288 C2.68052356,3.4055288 -0.000732984293,3.4055288 -0.000732984293,4.83631414 C-0.000732984293,6.80217801 3.60554974,5.75987435 4.94544503,7.72427225 C5.65937173,8.35024084 6.28387435,8.29160209 6.64157068,9.12573822 L6.79109948,13.8622827 C6.79109948,14.6656335 6.49350785,15.4118115 6.49350785,16.4218639 C6.49350785,16.603644 6.9113089,17.3175707 6.9113089,17.5565236 L6.9113089,19.4622827 L7.11801047,20.3550576 C7.11801047,21.0118115 6.64157068,21.3387225 6.64157068,21.9339058 L7.41853403,24.9728586 C7.41853403,25.5973613 6.9113089,25.9257382 6.9113089,26.7320209 C6.9113089,27.3565236 7.11801047,27.475267 7.11801047,28.130555 C7.11801047,29.0526492 6.64157068,30.1257382 6.64157068,31.1680419 C6.64157068,31.7925445 7.11801047,32.2411309 7.11801047,32.9272042 C7.11801047,33.8492984 6.9113089,34.6247958 6.64157068,35.548356 C6.3747644,37.9320209 6.58439791,40.076733 5.15507853,42.1027016 C4.88534031,42.2492984 0.507958115,43.3824921 0.15026178,43.7988272 L0.15026178,43.9468901 C0.15026178,44.9906597 3.2478534,45.4069948 3.60554974,45.4069948 C5.71947644,45.4069948 7.68534031,44.8425969 9.59109948,44.8425969 C12.0040838,44.8425969 14.1795812,45.0185131 16.473822,45.2281466 C17.0382199,45.0185131 17.6656545,44.930555 18.2901571,44.930555 C18.7959162,44.930555 19.3617801,45.0185131 19.9291099,45.2281466 L21.2690052,44.7810262 C23.3843979,44.6329634 24.872356,44.1565236 26.9877487,43.5012356 C27.1973822,43.5012356 27.5550785,43.2314974 28.9536126,43.2314974 C30.2334031,42.8166283 34.2560209,38.4964188 34.8805236,37.4555812 C35.4478534,36.4704503 35.4478534,35.1012356 35.4478534,33.6425969 C35.4478534,30.9012356 33.273822,28.6949529 32.1406283,26.5209215 L31.1584293,25.8670995 Z" id="Fill-6" fill="#222222" mask="url(#mask-2)"></path>
                        </g>
                        <path d="M66.5379686,20.1268368 C67.5714764,20.0608682 68.6049843,19.9948996 69.8847749,19.9142714 C66.8722094,18.1814965 63.204356,17.9220201 60.8060314,15.3800305 C60.8617382,15.1425436 60.918911,14.9050567 60.9760838,14.6661038 C65.2933613,15.2818106 69.6091728,15.8960515 73.9264503,16.5117583 C73.986555,16.4076745 74.0481257,16.3035907 74.1082304,16.199507 C73.0292775,15.6131195 71.9913717,14.9329101 70.8655079,14.4579363 C67.2621571,12.9421248 63.5620524,11.6403447 60.0363979,9.96767451 C58.6276021,9.29919283 57.5970262,7.8537478 56.3553508,6.8085122 C55.8232042,6.36139178 55.179644,6.04914047 54.6049843,5.64893105 C53.9130471,5.16809335 53.2387016,4.65940225 52.7798534,3.74463786 C53.1492775,3.74756979 53.5172356,3.75050173 54.0332565,3.75489964 C53.5861361,3.18317189 53.1844607,2.67008288 52.3503246,1.60285775 C53.5832042,1.96202006 54.2619476,2.10275304 54.896712,2.35343367 C65.9251937,6.71029231 76.9624712,11.0407635 87.9645654,15.4635907 C93.0397487,17.502753 98.0035183,19.8233813 103.091895,21.8273604 C105.702785,22.8550043 108.546764,23.290397 111.164984,24.3048473 C116.347183,26.3161562 121.535246,28.3567845 126.548859,30.7448473 C130.002681,32.39113 133.114932,34.6018106 135.140901,38.1494546 C136.885403,41.2045331 139.625298,40.98024 141.432838,37.989664 C145.07577,31.9645331 153.773361,30.2698735 159.366031,35.238041 C160.260272,36.032596 161.620691,36.3008682 162.850639,36.8506064 C162.063414,37.4751091 160.424461,38.782753 159.653361,39.3940619 C159.723728,39.5362609 160.258806,39.4673604 160.81001,39.3295593 C174.966869,37.4663132 189.047497,35.3978316 203.204356,33.5345855 C203.255665,33.6269415 203.30844,33.7178316 203.361215,33.8101876 C202.600377,34.0623342 201.854199,34.3716536 201.077236,34.5563656 C196.865508,35.5546902 192.630325,36.4577269 188.440586,37.5396117 C187.300063,37.8342714 186.342785,38.8032766 185.20666,39.1624389 C183.346346,39.7532242 181.409801,40.0977269 179.355979,40.5814965 C180.16666,42.9505017 178.00289,42.7379363 176.726031,43.2935384 C175.355351,43.8887216 173.926031,44.3519677 172.518702,44.8650567 C169.029696,46.1360515 165.514304,47.3366797 162.05755,48.6912347 C159.747183,49.5972033 157.148021,50.1909206 156.626136,53.344219 C155.749487,58.6524913 152.273675,62.9008682 148.492942,66.5144808 C143.980691,70.8244284 139.27933,75.6665227 133.273257,77.8185646 C131.54488,78.4372033 131.141738,79.9324913 130.817759,81.4409729 C129.178806,89.0757373 127.545717,96.7119677 125.914094,104.348198 C125.09022,108.677203 124.272209,113.006209 123.323728,117.308826 C122.859016,119.421287 122.517445,121.561601 121.972105,123.65647 C121.461948,125.61647 120.916607,127.662962 119.808335,129.382544 C119.864042,123.905685 120.824251,113.155737 120.989906,111.175214 C121.113047,109.706313 121.209801,108.231549 121.309487,106.759716 C121.384251,105.630921 121.755141,104.015423 121.316817,102.92914 C120.706974,101.476366 121.026555,99.7567845 120.852105,98.1017059 C118.204565,97.9375174 118.578387,94.4822295 116.301738,93.9251614 C115.914723,93.8298735 115.495455,93.8606588 115.104042,93.7770986 C114.328545,93.6114441 113.564775,93.3988787 112.792209,93.2229625 C112.348021,93.1232766 111.871581,92.9253708 111.452314,93.0016012 C110.043518,93.2610776 108.967497,93.1716536 109.202052,91.5473604 C106.516398,91.9006588 103.301529,92.4694546 100.80645,93.476575 C97.9448796,94.6332242 95.174199,96.651863 92.5369215,98.2497687 C89.2033089,100.269873 86.1746178,102.206418 82.9509529,104.398041 C79.725822,106.589664 76.7059267,108.304847 72.6070785,110.506732 C75.1329424,108.184638 81.8294869,102.591968 82.4437277,102.087675 C89.6123141,96.1944808 88.8441466,96.886418 96.011267,90.9917583 C99.9547225,87.7505017 104.135665,84.7247426 107.670115,81.0803447 C110.60645,78.0516536 114.225927,75.4862085 115.92645,71.3683028 C116.086241,70.984219 116.399958,70.6059991 116.401424,70.2233813 C116.413152,66.8164703 117.899644,64.0604494 120.233466,61.7090358 C118.911162,60.6506064 117.402681,60.4116536 115.954304,59.7109206 C114.198073,58.8606588 112.531267,57.451863 111.01399,56.239507 C106.509068,52.6376221 103.669487,47.8512347 99.6204817,43.9429625 C99.0414241,43.3873604 98.2102199,43.0927007 97.3775497,42.6162609 C97.5388063,42.2057897 97.7191204,41.7454756 97.9610052,41.1268368 C94.7930471,41.0110253 92.1572356,40.2267321 90.1547225,37.8284075 C89.6944084,37.2772033 88.5876021,37.3123865 87.8502199,36.9356326 C86.8108482,36.403486 85.8198534,35.7701876 84.8420524,35.1266274 C83.4904293,34.2353185 82.1344084,33.3425436 80.8502199,32.3603447 C79.7991204,31.5569939 78.8594346,30.6085122 77.8523141,29.7479886 C77.2468691,29.2305017 76.645822,28.6939572 75.9729424,28.2790881 C74.3310576,27.2675698 72.0925236,26.9025436 72.0338848,24.2681981 C72.0280209,23.9955279 71.136712,23.7521771 70.6661361,23.478041 C69.1576545,22.5999258 67.6521047,21.7144808 66.146555,20.8305017 C66.2770262,20.5959468 66.4074974,20.3613918 66.5379686,20.1268368" id="bird" fill="#00AFC4"></path>
                    </g>
                </g>
            </g>
        </g>
    </g>
</svg>